ISO-10303-21;
HEADER;
/* Generated by software containing ST-Developer
 * from STEP Tools, Inc. (www.steptools.com) 
 */

FILE_DESCRIPTION(
/* description */ (''),
/* implementation_level */ '2;1');

FILE_NAME(
/* name */ 'TwoSiPM_Metalens_Holder_CRAB_3Walls.step',
/* time_stamp */ '2026-07-27T09:14:34+01:00',
/* author */ (''),
/* organization */ (''),
/* preprocessor_version */ 'ST-DEVELOPER v20.1',
/* originating_system */ 'Autodesk Translation Framework v15.8.0.0',
/* authorisation */ '');

FILE_SCHEMA (('AUTOMOTIVE_DESIGN { 1 0 10303 214 3 1 1 }'));
ENDSEC;

DATA;
#10=MECHANICAL_DESIGN_GEOMETRIC_PRESENTATION_REPRESENTATION('',(#13),#789);
#11=SHAPE_REPRESENTATION_RELATIONSHIP('SRR','None',#796,#12);
#12=ADVANCED_BREP_SHAPE_REPRESENTATION('',(#14),#788);
#13=STYLED_ITEM('',(#805),#14);
#14=MANIFOLD_SOLID_BREP('Body1',#489);
#15=FACE_BOUND('',#83,.T.);
#16=FACE_BOUND('',#85,.T.);
#17=FACE_BOUND('',#89,.T.);
#18=FACE_BOUND('',#91,.T.);
#19=PLANE('',#509);
#20=PLANE('',#510);
#21=PLANE('',#511);
#22=PLANE('',#512);
#23=PLANE('',#513);
#24=PLANE('',#514);
#25=PLANE('',#515);
#26=PLANE('',#516);
#27=PLANE('',#517);
#28=PLANE('',#518);
#29=PLANE('',#519);
#30=PLANE('',#520);
#31=PLANE('',#521);
#32=PLANE('',#522);
#33=PLANE('',#523);
#34=PLANE('',#524);
#35=PLANE('',#525);
#36=PLANE('',#526);
#37=PLANE('',#527);
#38=PLANE('',#528);
#39=PLANE('',#529);
#40=PLANE('',#530);
#41=FACE_OUTER_BOUND('',#65,.T.);
#42=FACE_OUTER_BOUND('',#66,.T.);
#43=FACE_OUTER_BOUND('',#67,.T.);
#44=FACE_OUTER_BOUND('',#68,.T.);
#45=FACE_OUTER_BOUND('',#69,.T.);
#46=FACE_OUTER_BOUND('',#70,.T.);
#47=FACE_OUTER_BOUND('',#71,.T.);
#48=FACE_OUTER_BOUND('',#72,.T.);
#49=FACE_OUTER_BOUND('',#73,.T.);
#50=FACE_OUTER_BOUND('',#74,.T.);
#51=FACE_OUTER_BOUND('',#75,.T.);
#52=FACE_OUTER_BOUND('',#76,.T.);
#53=FACE_OUTER_BOUND('',#77,.T.);
#54=FACE_OUTER_BOUND('',#78,.T.);
#55=FACE_OUTER_BOUND('',#79,.T.);
#56=FACE_OUTER_BOUND('',#80,.T.);
#57=FACE_OUTER_BOUND('',#81,.T.);
#58=FACE_OUTER_BOUND('',#82,.T.);
#59=FACE_OUTER_BOUND('',#84,.T.);
#60=FACE_OUTER_BOUND('',#86,.T.);
#61=FACE_OUTER_BOUND('',#87,.T.);
#62=FACE_OUTER_BOUND('',#88,.T.);
#63=FACE_OUTER_BOUND('',#90,.T.);
#64=FACE_OUTER_BOUND('',#92,.T.);
#65=EDGE_LOOP('',(#331,#332,#333,#334));
#66=EDGE_LOOP('',(#335,#336,#337,#338));
#67=EDGE_LOOP('',(#339,#340,#341,#342,#343,#344,#345,#346,#347,#348,#349,
#350));
#68=EDGE_LOOP('',(#351,#352,#353,#354,#355,#356,#357,#358,#359,#360,#361,
#362));
#69=EDGE_LOOP('',(#363,#364,#365,#366));
#70=EDGE_LOOP('',(#367,#368,#369,#370));
#71=EDGE_LOOP('',(#371,#372,#373,#374));
#72=EDGE_LOOP('',(#375,#376,#377,#378,#379,#380,#381,#382));
#73=EDGE_LOOP('',(#383,#384,#385,#386,#387,#388,#389,#390));
#74=EDGE_LOOP('',(#391,#392,#393,#394));
#75=EDGE_LOOP('',(#395,#396,#397,#398));
#76=EDGE_LOOP('',(#399,#400,#401,#402));
#77=EDGE_LOOP('',(#403,#404,#405,#406));
#78=EDGE_LOOP('',(#407,#408,#409,#410));
#79=EDGE_LOOP('',(#411,#412,#413,#414));
#80=EDGE_LOOP('',(#415,#416,#417,#418));
#81=EDGE_LOOP('',(#419,#420,#421,#422));
#82=EDGE_LOOP('',(#423,#424,#425,#426));
#83=EDGE_LOOP('',(#427));
#84=EDGE_LOOP('',(#428,#429,#430,#431,#432,#433,#434,#435));
#85=EDGE_LOOP('',(#436));
#86=EDGE_LOOP('',(#437,#438,#439,#440));
#87=EDGE_LOOP('',(#441,#442,#443,#444));
#88=EDGE_LOOP('',(#445,#446,#447,#448,#449,#450,#451,#452));
#89=EDGE_LOOP('',(#453));
#90=EDGE_LOOP('',(#454,#455,#456,#457));
#91=EDGE_LOOP('',(#458));
#92=EDGE_LOOP('',(#459,#460,#461,#462));
#93=LINE('',#656,#155);
#94=LINE('',#662,#156);
#95=LINE('',#667,#157);
#96=LINE('',#669,#158);
#97=LINE('',#671,#159);
#98=LINE('',#673,#160);
#99=LINE('',#675,#161);
#100=LINE('',#677,#162);
#101=LINE('',#679,#163);
#102=LINE('',#681,#164);
#103=LINE('',#683,#165);
#104=LINE('',#685,#166);
#105=LINE('',#687,#167);
#106=LINE('',#688,#168);
#107=LINE('',#692,#169);
#108=LINE('',#694,#170);
#109=LINE('',#696,#171);
#110=LINE('',#698,#172);
#111=LINE('',#700,#173);
#112=LINE('',#702,#174);
#113=LINE('',#704,#175);
#114=LINE('',#706,#176);
#115=LINE('',#708,#177);
#116=LINE('',#710,#178);
#117=LINE('',#712,#179);
#118=LINE('',#713,#180);
#119=LINE('',#715,#181);
#120=LINE('',#716,#182);
#121=LINE('',#718,#183);
#122=LINE('',#719,#184);
#123=LINE('',#724,#185);
#124=LINE('',#726,#186);
#125=LINE('',#728,#187);
#126=LINE('',#730,#188);
#127=LINE('',#732,#189);
#128=LINE('',#734,#190);
#129=LINE('',#736,#191);
#130=LINE('',#737,#192);
#131=LINE('',#741,#193);
#132=LINE('',#743,#194);
#133=LINE('',#745,#195);
#134=LINE('',#747,#196);
#135=LINE('',#749,#197);
#136=LINE('',#751,#198);
#137=LINE('',#753,#199);
#138=LINE('',#754,#200);
#139=LINE('',#756,#201);
#140=LINE('',#757,#202);
#141=LINE('',#759,#203);
#142=LINE('',#760,#204);
#143=LINE('',#762,#205);
#144=LINE('',#763,#206);
#145=LINE('',#765,#207);
#146=LINE('',#766,#208);
#147=LINE('',#768,#209);
#148=LINE('',#769,#210);
#149=LINE('',#773,#211);
#150=LINE('',#775,#212);
#151=LINE('',#777,#213);
#152=LINE('',#780,#214);
#153=LINE('',#781,#215);
#154=LINE('',#783,#216);
#155=VECTOR('',#537,3.75);
#156=VECTOR('',#544,3.75);
#157=VECTOR('',#549,10.);
#158=VECTOR('',#550,10.);
#159=VECTOR('',#551,10.);
#160=VECTOR('',#552,10.);
#161=VECTOR('',#553,10.);
#162=VECTOR('',#554,10.);
#163=VECTOR('',#555,10.);
#164=VECTOR('',#556,10.);
#165=VECTOR('',#557,10.);
#166=VECTOR('',#558,10.);
#167=VECTOR('',#559,10.);
#168=VECTOR('',#560,10.);
#169=VECTOR('',#563,10.);
#170=VECTOR('',#564,10.);
#171=VECTOR('',#565,10.);
#172=VECTOR('',#566,10.);
#173=VECTOR('',#567,10.);
#174=VECTOR('',#568,10.);
#175=VECTOR('',#569,10.);
#176=VECTOR('',#570,10.);
#177=VECTOR('',#571,10.);
#178=VECTOR('',#572,10.);
#179=VECTOR('',#573,10.);
#180=VECTOR('',#574,10.);
#181=VECTOR('',#577,10.);
#182=VECTOR('',#578,10.);
#183=VECTOR('',#581,10.);
#184=VECTOR('',#582,10.);
#185=VECTOR('',#587,10.);
#186=VECTOR('',#588,10.);
#187=VECTOR('',#589,10.);
#188=VECTOR('',#590,10.);
#189=VECTOR('',#591,10.);
#190=VECTOR('',#592,10.);
#191=VECTOR('',#593,10.);
#192=VECTOR('',#594,10.);
#193=VECTOR('',#597,10.);
#194=VECTOR('',#598,10.);
#195=VECTOR('',#599,10.);
#196=VECTOR('',#600,10.);
#197=VECTOR('',#601,10.);
#198=VECTOR('',#602,10.);
#199=VECTOR('',#603,10.);
#200=VECTOR('',#604,10.);
#201=VECTOR('',#607,10.);
#202=VECTOR('',#608,10.);
#203=VECTOR('',#611,10.);
#204=VECTOR('',#612,10.);
#205=VECTOR('',#615,10.);
#206=VECTOR('',#616,10.);
#207=VECTOR('',#619,10.);
#208=VECTOR('',#620,10.);
#209=VECTOR('',#623,10.);
#210=VECTOR('',#624,10.);
#211=VECTOR('',#631,10.);
#212=VECTOR('',#634,10.);
#213=VECTOR('',#637,10.);
#214=VECTOR('',#642,10.);
#215=VECTOR('',#643,10.);
#216=VECTOR('',#646,10.);
#217=CIRCLE('',#504,3.75);
#218=CIRCLE('',#505,3.75);
#219=CIRCLE('',#507,3.75);
#220=CIRCLE('',#508,3.75);
#221=VERTEX_POINT('',#653);
#222=VERTEX_POINT('',#655);
#223=VERTEX_POINT('',#659);
#224=VERTEX_POINT('',#661);
#225=VERTEX_POINT('',#665);
#226=VERTEX_POINT('',#666);
#227=VERTEX_POINT('',#668);
#228=VERTEX_POINT('',#670);
#229=VERTEX_POINT('',#672);
#230=VERTEX_POINT('',#674);
#231=VERTEX_POINT('',#676);
#232=VERTEX_POINT('',#678);
#233=VERTEX_POINT('',#680);
#234=VERTEX_POINT('',#682);
#235=VERTEX_POINT('',#684);
#236=VERTEX_POINT('',#686);
#237=VERTEX_POINT('',#690);
#238=VERTEX_POINT('',#691);
#239=VERTEX_POINT('',#693);
#240=VERTEX_POINT('',#695);
#241=VERTEX_POINT('',#697);
#242=VERTEX_POINT('',#699);
#243=VERTEX_POINT('',#701);
#244=VERTEX_POINT('',#703);
#245=VERTEX_POINT('',#705);
#246=VERTEX_POINT('',#707);
#247=VERTEX_POINT('',#709);
#248=VERTEX_POINT('',#711);
#249=VERTEX_POINT('',#722);
#250=VERTEX_POINT('',#723);
#251=VERTEX_POINT('',#725);
#252=VERTEX_POINT('',#727);
#253=VERTEX_POINT('',#729);
#254=VERTEX_POINT('',#731);
#255=VERTEX_POINT('',#733);
#256=VERTEX_POINT('',#735);
#257=VERTEX_POINT('',#739);
#258=VERTEX_POINT('',#740);
#259=VERTEX_POINT('',#742);
#260=VERTEX_POINT('',#744);
#261=VERTEX_POINT('',#746);
#262=VERTEX_POINT('',#748);
#263=VERTEX_POINT('',#750);
#264=VERTEX_POINT('',#752);
#265=EDGE_CURVE('',#221,#221,#217,.T.);
#266=EDGE_CURVE('',#221,#222,#93,.T.);
#267=EDGE_CURVE('',#222,#222,#218,.T.);
#268=EDGE_CURVE('',#223,#223,#219,.T.);
#269=EDGE_CURVE('',#223,#224,#94,.T.);
#270=EDGE_CURVE('',#224,#224,#220,.T.);
#271=EDGE_CURVE('',#225,#226,#95,.T.);
#272=EDGE_CURVE('',#227,#226,#96,.T.);
#273=EDGE_CURVE('',#227,#228,#97,.T.);
#274=EDGE_CURVE('',#228,#229,#98,.T.);
#275=EDGE_CURVE('',#229,#230,#99,.T.);
#276=EDGE_CURVE('',#230,#231,#100,.T.);
#277=EDGE_CURVE('',#231,#232,#101,.T.);
#278=EDGE_CURVE('',#232,#233,#102,.T.);
#279=EDGE_CURVE('',#233,#234,#103,.T.);
#280=EDGE_CURVE('',#234,#235,#104,.T.);
#281=EDGE_CURVE('',#236,#235,#105,.T.);
#282=EDGE_CURVE('',#236,#225,#106,.T.);
#283=EDGE_CURVE('',#237,#238,#107,.T.);
#284=EDGE_CURVE('',#239,#238,#108,.T.);
#285=EDGE_CURVE('',#239,#240,#109,.T.);
#286=EDGE_CURVE('',#240,#241,#110,.T.);
#287=EDGE_CURVE('',#241,#242,#111,.T.);
#288=EDGE_CURVE('',#242,#243,#112,.T.);
#289=EDGE_CURVE('',#243,#244,#113,.T.);
#290=EDGE_CURVE('',#244,#245,#114,.T.);
#291=EDGE_CURVE('',#245,#246,#115,.T.);
#292=EDGE_CURVE('',#246,#247,#116,.T.);
#293=EDGE_CURVE('',#248,#247,#117,.T.);
#294=EDGE_CURVE('',#248,#237,#118,.T.);
#295=EDGE_CURVE('',#244,#229,#119,.T.);
#296=EDGE_CURVE('',#230,#243,#120,.T.);
#297=EDGE_CURVE('',#232,#241,#121,.T.);
#298=EDGE_CURVE('',#242,#231,#122,.T.);
#299=EDGE_CURVE('',#249,#250,#123,.T.);
#300=EDGE_CURVE('',#251,#249,#124,.T.);
#301=EDGE_CURVE('',#251,#252,#125,.T.);
#302=EDGE_CURVE('',#253,#252,#126,.T.);
#303=EDGE_CURVE('',#254,#253,#127,.T.);
#304=EDGE_CURVE('',#255,#254,#128,.T.);
#305=EDGE_CURVE('',#256,#255,#129,.T.);
#306=EDGE_CURVE('',#250,#256,#130,.T.);
#307=EDGE_CURVE('',#257,#258,#131,.T.);
#308=EDGE_CURVE('',#259,#257,#132,.T.);
#309=EDGE_CURVE('',#259,#260,#133,.T.);
#310=EDGE_CURVE('',#261,#260,#134,.T.);
#311=EDGE_CURVE('',#262,#261,#135,.T.);
#312=EDGE_CURVE('',#263,#262,#136,.T.);
#313=EDGE_CURVE('',#263,#264,#137,.T.);
#314=EDGE_CURVE('',#258,#264,#138,.T.);
#315=EDGE_CURVE('',#254,#263,#139,.T.);
#316=EDGE_CURVE('',#264,#253,#140,.T.);
#317=EDGE_CURVE('',#226,#258,#141,.T.);
#318=EDGE_CURVE('',#257,#225,#142,.T.);
#319=EDGE_CURVE('',#251,#248,#143,.T.);
#320=EDGE_CURVE('',#252,#247,#144,.T.);
#321=EDGE_CURVE('',#255,#262,#145,.T.);
#322=EDGE_CURVE('',#256,#261,#146,.T.);
#323=EDGE_CURVE('',#238,#250,#147,.T.);
#324=EDGE_CURVE('',#249,#237,#148,.T.);
#325=EDGE_CURVE('',#236,#259,#149,.F.);
#326=EDGE_CURVE('',#245,#228,#150,.T.);
#327=EDGE_CURVE('',#227,#246,#151,.T.);
#328=EDGE_CURVE('',#240,#233,#152,.T.);
#329=EDGE_CURVE('',#234,#239,#153,.T.);
#330=EDGE_CURVE('',#260,#235,#154,.T.);
#331=ORIENTED_EDGE('',*,*,#265,.F.);
#332=ORIENTED_EDGE('',*,*,#266,.T.);
#333=ORIENTED_EDGE('',*,*,#267,.F.);
#334=ORIENTED_EDGE('',*,*,#266,.F.);
#335=ORIENTED_EDGE('',*,*,#268,.F.);
#336=ORIENTED_EDGE('',*,*,#269,.T.);
#337=ORIENTED_EDGE('',*,*,#270,.F.);
#338=ORIENTED_EDGE('',*,*,#269,.F.);
#339=ORIENTED_EDGE('',*,*,#271,.T.);
#340=ORIENTED_EDGE('',*,*,#272,.F.);
#341=ORIENTED_EDGE('',*,*,#273,.T.);
#342=ORIENTED_EDGE('',*,*,#274,.T.);
#343=ORIENTED_EDGE('',*,*,#275,.T.);
#344=ORIENTED_EDGE('',*,*,#276,.T.);
#345=ORIENTED_EDGE('',*,*,#277,.T.);
#346=ORIENTED_EDGE('',*,*,#278,.T.);
#347=ORIENTED_EDGE('',*,*,#279,.T.);
#348=ORIENTED_EDGE('',*,*,#280,.T.);
#349=ORIENTED_EDGE('',*,*,#281,.F.);
#350=ORIENTED_EDGE('',*,*,#282,.T.);
#351=ORIENTED_EDGE('',*,*,#283,.T.);
#352=ORIENTED_EDGE('',*,*,#284,.F.);
#353=ORIENTED_EDGE('',*,*,#285,.T.);
#354=ORIENTED_EDGE('',*,*,#286,.T.);
#355=ORIENTED_EDGE('',*,*,#287,.T.);
#356=ORIENTED_EDGE('',*,*,#288,.T.);
#357=ORIENTED_EDGE('',*,*,#289,.T.);
#358=ORIENTED_EDGE('',*,*,#290,.T.);
#359=ORIENTED_EDGE('',*,*,#291,.T.);
#360=ORIENTED_EDGE('',*,*,#292,.T.);
#361=ORIENTED_EDGE('',*,*,#293,.F.);
#362=ORIENTED_EDGE('',*,*,#294,.T.);
#363=ORIENTED_EDGE('',*,*,#295,.F.);
#364=ORIENTED_EDGE('',*,*,#289,.F.);
#365=ORIENTED_EDGE('',*,*,#296,.F.);
#366=ORIENTED_EDGE('',*,*,#275,.F.);
#367=ORIENTED_EDGE('',*,*,#297,.F.);
#368=ORIENTED_EDGE('',*,*,#277,.F.);
#369=ORIENTED_EDGE('',*,*,#298,.F.);
#370=ORIENTED_EDGE('',*,*,#287,.F.);
#371=ORIENTED_EDGE('',*,*,#296,.T.);
#372=ORIENTED_EDGE('',*,*,#288,.F.);
#373=ORIENTED_EDGE('',*,*,#298,.T.);
#374=ORIENTED_EDGE('',*,*,#276,.F.);
#375=ORIENTED_EDGE('',*,*,#299,.F.);
#376=ORIENTED_EDGE('',*,*,#300,.F.);
#377=ORIENTED_EDGE('',*,*,#301,.T.);
#378=ORIENTED_EDGE('',*,*,#302,.F.);
#379=ORIENTED_EDGE('',*,*,#303,.F.);
#380=ORIENTED_EDGE('',*,*,#304,.F.);
#381=ORIENTED_EDGE('',*,*,#305,.F.);
#382=ORIENTED_EDGE('',*,*,#306,.F.);
#383=ORIENTED_EDGE('',*,*,#307,.F.);
#384=ORIENTED_EDGE('',*,*,#308,.F.);
#385=ORIENTED_EDGE('',*,*,#309,.T.);
#386=ORIENTED_EDGE('',*,*,#310,.F.);
#387=ORIENTED_EDGE('',*,*,#311,.F.);
#388=ORIENTED_EDGE('',*,*,#312,.F.);
#389=ORIENTED_EDGE('',*,*,#313,.T.);
#390=ORIENTED_EDGE('',*,*,#314,.F.);
#391=ORIENTED_EDGE('',*,*,#315,.F.);
#392=ORIENTED_EDGE('',*,*,#303,.T.);
#393=ORIENTED_EDGE('',*,*,#316,.F.);
#394=ORIENTED_EDGE('',*,*,#313,.F.);
#395=ORIENTED_EDGE('',*,*,#307,.T.);
#396=ORIENTED_EDGE('',*,*,#317,.F.);
#397=ORIENTED_EDGE('',*,*,#271,.F.);
#398=ORIENTED_EDGE('',*,*,#318,.F.);
#399=ORIENTED_EDGE('',*,*,#301,.F.);
#400=ORIENTED_EDGE('',*,*,#319,.T.);
#401=ORIENTED_EDGE('',*,*,#293,.T.);
#402=ORIENTED_EDGE('',*,*,#320,.F.);
#403=ORIENTED_EDGE('',*,*,#305,.T.);
#404=ORIENTED_EDGE('',*,*,#321,.T.);
#405=ORIENTED_EDGE('',*,*,#311,.T.);
#406=ORIENTED_EDGE('',*,*,#322,.F.);
#407=ORIENTED_EDGE('',*,*,#299,.T.);
#408=ORIENTED_EDGE('',*,*,#323,.F.);
#409=ORIENTED_EDGE('',*,*,#283,.F.);
#410=ORIENTED_EDGE('',*,*,#324,.F.);
#411=ORIENTED_EDGE('',*,*,#304,.T.);
#412=ORIENTED_EDGE('',*,*,#315,.T.);
#413=ORIENTED_EDGE('',*,*,#312,.T.);
#414=ORIENTED_EDGE('',*,*,#321,.F.);
#415=ORIENTED_EDGE('',*,*,#300,.T.);
#416=ORIENTED_EDGE('',*,*,#324,.T.);
#417=ORIENTED_EDGE('',*,*,#294,.F.);
#418=ORIENTED_EDGE('',*,*,#319,.F.);
#419=ORIENTED_EDGE('',*,*,#308,.T.);
#420=ORIENTED_EDGE('',*,*,#318,.T.);
#421=ORIENTED_EDGE('',*,*,#282,.F.);
#422=ORIENTED_EDGE('',*,*,#325,.T.);
#423=ORIENTED_EDGE('',*,*,#295,.T.);
#424=ORIENTED_EDGE('',*,*,#274,.F.);
#425=ORIENTED_EDGE('',*,*,#326,.F.);
#426=ORIENTED_EDGE('',*,*,#290,.F.);
#427=ORIENTED_EDGE('',*,*,#267,.T.);
#428=ORIENTED_EDGE('',*,*,#292,.F.);
#429=ORIENTED_EDGE('',*,*,#327,.F.);
#430=ORIENTED_EDGE('',*,*,#272,.T.);
#431=ORIENTED_EDGE('',*,*,#317,.T.);
#432=ORIENTED_EDGE('',*,*,#314,.T.);
#433=ORIENTED_EDGE('',*,*,#316,.T.);
#434=ORIENTED_EDGE('',*,*,#302,.T.);
#435=ORIENTED_EDGE('',*,*,#320,.T.);
#436=ORIENTED_EDGE('',*,*,#265,.T.);
#437=ORIENTED_EDGE('',*,*,#327,.T.);
#438=ORIENTED_EDGE('',*,*,#291,.F.);
#439=ORIENTED_EDGE('',*,*,#326,.T.);
#440=ORIENTED_EDGE('',*,*,#273,.F.);
#441=ORIENTED_EDGE('',*,*,#328,.F.);
#442=ORIENTED_EDGE('',*,*,#285,.F.);
#443=ORIENTED_EDGE('',*,*,#329,.F.);
#444=ORIENTED_EDGE('',*,*,#279,.F.);
#445=ORIENTED_EDGE('',*,*,#329,.T.);
#446=ORIENTED_EDGE('',*,*,#284,.T.);
#447=ORIENTED_EDGE('',*,*,#323,.T.);
#448=ORIENTED_EDGE('',*,*,#306,.T.);
#449=ORIENTED_EDGE('',*,*,#322,.T.);
#450=ORIENTED_EDGE('',*,*,#310,.T.);
#451=ORIENTED_EDGE('',*,*,#330,.T.);
#452=ORIENTED_EDGE('',*,*,#280,.F.);
#453=ORIENTED_EDGE('',*,*,#268,.T.);
#454=ORIENTED_EDGE('',*,*,#297,.T.);
#455=ORIENTED_EDGE('',*,*,#286,.F.);
#456=ORIENTED_EDGE('',*,*,#328,.T.);
#457=ORIENTED_EDGE('',*,*,#278,.F.);
#458=ORIENTED_EDGE('',*,*,#270,.T.);
#459=ORIENTED_EDGE('',*,*,#309,.F.);
#460=ORIENTED_EDGE('',*,*,#325,.F.);
#461=ORIENTED_EDGE('',*,*,#281,.T.);
#462=ORIENTED_EDGE('',*,*,#330,.F.);
#463=CYLINDRICAL_SURFACE('',#503,3.75);
#464=CYLINDRICAL_SURFACE('',#506,3.75);
#465=ADVANCED_FACE('',(#41),#463,.F.);
#466=ADVANCED_FACE('',(#42),#464,.F.);
#467=ADVANCED_FACE('',(#43),#19,.T.);
#468=ADVANCED_FACE('',(#44),#20,.T.);
#469=ADVANCED_FACE('',(#45),#21,.T.);
#470=ADVANCED_FACE('',(#46),#22,.T.);
#471=ADVANCED_FACE('',(#47),#23,.T.);
#472=ADVANCED_FACE('',(#48),#24,.F.);
#473=ADVANCED_FACE('',(#49),#25,.F.);
#474=ADVANCED_FACE('',(#50),#26,.F.);
#475=ADVANCED_FACE('',(#51),#27,.F.);
#476=ADVANCED_FACE('',(#52),#28,.F.);
#477=ADVANCED_FACE('',(#53),#29,.F.);
#478=ADVANCED_FACE('',(#54),#30,.F.);
#479=ADVANCED_FACE('',(#55),#31,.F.);
#480=ADVANCED_FACE('',(#56),#32,.F.);
#481=ADVANCED_FACE('',(#57),#33,.F.);
#482=ADVANCED_FACE('',(#58,#15),#34,.T.);
#483=ADVANCED_FACE('',(#59,#16),#35,.T.);
#484=ADVANCED_FACE('',(#60),#36,.T.);
#485=ADVANCED_FACE('',(#61),#37,.T.);
#486=ADVANCED_FACE('',(#62,#17),#38,.T.);
#487=ADVANCED_FACE('',(#63,#18),#39,.T.);
#488=ADVANCED_FACE('',(#64),#40,.F.);
#489=CLOSED_SHELL('',(#465,#466,#467,#468,#469,#470,#471,#472,#473,#474,
#475,#476,#477,#478,#479,#480,#481,#482,#483,#484,#485,#486,#487,#488));
#490=DERIVED_UNIT_ELEMENT(#492,1.);
#491=DERIVED_UNIT_ELEMENT(#791,-3.);
#492=(
MASS_UNIT()
NAMED_UNIT(*)
SI_UNIT(.KILO.,.GRAM.)
);
#493=DERIVED_UNIT((#490,#491));
#494=MEASURE_REPRESENTATION_ITEM('density measure',
POSITIVE_RATIO_MEASURE(7850.),#493);
#495=PROPERTY_DEFINITION_REPRESENTATION(#500,#497);
#496=PROPERTY_DEFINITION_REPRESENTATION(#501,#498);
#497=REPRESENTATION('material name',(#499),#788);
#498=REPRESENTATION('density',(#494),#788);
#499=DESCRIPTIVE_REPRESENTATION_ITEM('Steel','Steel');
#500=PROPERTY_DEFINITION('material property','material name',#798);
#501=PROPERTY_DEFINITION('material property','density of part',#798);
#502=AXIS2_PLACEMENT_3D('',#651,#531,#532);
#503=AXIS2_PLACEMENT_3D('',#652,#533,#534);
#504=AXIS2_PLACEMENT_3D('',#654,#535,#536);
#505=AXIS2_PLACEMENT_3D('',#657,#538,#539);
#506=AXIS2_PLACEMENT_3D('',#658,#540,#541);
#507=AXIS2_PLACEMENT_3D('',#660,#542,#543);
#508=AXIS2_PLACEMENT_3D('',#663,#545,#546);
#509=AXIS2_PLACEMENT_3D('',#664,#547,#548);
#510=AXIS2_PLACEMENT_3D('',#689,#561,#562);
#511=AXIS2_PLACEMENT_3D('',#714,#575,#576);
#512=AXIS2_PLACEMENT_3D('',#717,#579,#580);
#513=AXIS2_PLACEMENT_3D('',#720,#583,#584);
#514=AXIS2_PLACEMENT_3D('',#721,#585,#586);
#515=AXIS2_PLACEMENT_3D('',#738,#595,#596);
#516=AXIS2_PLACEMENT_3D('',#755,#605,#606);
#517=AXIS2_PLACEMENT_3D('',#758,#609,#610);
#518=AXIS2_PLACEMENT_3D('',#761,#613,#614);
#519=AXIS2_PLACEMENT_3D('',#764,#617,#618);
#520=AXIS2_PLACEMENT_3D('',#767,#621,#622);
#521=AXIS2_PLACEMENT_3D('',#770,#625,#626);
#522=AXIS2_PLACEMENT_3D('',#771,#627,#628);
#523=AXIS2_PLACEMENT_3D('',#772,#629,#630);
#524=AXIS2_PLACEMENT_3D('',#774,#632,#633);
#525=AXIS2_PLACEMENT_3D('',#776,#635,#636);
#526=AXIS2_PLACEMENT_3D('',#778,#638,#639);
#527=AXIS2_PLACEMENT_3D('',#779,#640,#641);
#528=AXIS2_PLACEMENT_3D('',#782,#644,#645);
#529=AXIS2_PLACEMENT_3D('',#784,#647,#648);
#530=AXIS2_PLACEMENT_3D('',#785,#649,#650);
#531=DIRECTION('axis',(0.,0.,1.));
#532=DIRECTION('refdir',(1.,0.,0.));
#533=DIRECTION('center_axis',(0.,0.,1.));
#534=DIRECTION('ref_axis',(-1.,0.,0.));
#535=DIRECTION('center_axis',(0.,0.,1.));
#536=DIRECTION('ref_axis',(-1.,0.,0.));
#537=DIRECTION('',(0.,0.,1.));
#538=DIRECTION('center_axis',(0.,0.,-1.));
#539=DIRECTION('ref_axis',(-1.,0.,0.));
#540=DIRECTION('center_axis',(0.,0.,1.));
#541=DIRECTION('ref_axis',(-1.,0.,0.));
#542=DIRECTION('center_axis',(0.,0.,1.));
#543=DIRECTION('ref_axis',(-1.,0.,0.));
#544=DIRECTION('',(0.,0.,1.));
#545=DIRECTION('center_axis',(0.,0.,-1.));
#546=DIRECTION('ref_axis',(-1.,0.,0.));
#547=DIRECTION('center_axis',(-1.,0.,0.));
#548=DIRECTION('ref_axis',(0.,0.,1.));
#549=DIRECTION('',(0.,0.,-1.));
#550=DIRECTION('',(0.,1.,0.));
#551=DIRECTION('',(0.,0.,1.));
#552=DIRECTION('',(0.,1.,0.));
#553=DIRECTION('',(0.,1.34572487833352E-16,1.));
#554=DIRECTION('',(0.,1.,0.));
#555=DIRECTION('',(0.,0.,-1.));
#556=DIRECTION('',(0.,1.,0.));
#557=DIRECTION('',(0.,0.,-1.));
#558=DIRECTION('',(0.,-1.,0.));
#559=DIRECTION('',(0.,0.,-1.));
#560=DIRECTION('',(0.,-1.,0.));
#561=DIRECTION('center_axis',(1.,0.,0.));
#562=DIRECTION('ref_axis',(0.,0.,-1.));
#563=DIRECTION('',(0.,0.,-1.));
#564=DIRECTION('',(0.,-1.,0.));
#565=DIRECTION('',(0.,0.,1.));
#566=DIRECTION('',(0.,-1.,0.));
#567=DIRECTION('',(0.,0.,1.));
#568=DIRECTION('',(0.,-1.,0.));
#569=DIRECTION('',(0.,0.,-1.));
#570=DIRECTION('',(0.,-1.,0.));
#571=DIRECTION('',(0.,0.,-1.));
#572=DIRECTION('',(0.,1.,0.));
#573=DIRECTION('',(0.,0.,-1.));
#574=DIRECTION('',(0.,1.,0.));
#575=DIRECTION('center_axis',(0.,-1.,0.));
#576=DIRECTION('ref_axis',(0.,0.,-1.));
#577=DIRECTION('',(-1.,0.,0.));
#578=DIRECTION('',(1.,0.,0.));
#579=DIRECTION('center_axis',(0.,1.,0.));
#580=DIRECTION('ref_axis',(0.,0.,1.));
#581=DIRECTION('',(1.,0.,0.));
#582=DIRECTION('',(-1.,0.,0.));
#583=DIRECTION('center_axis',(0.,0.,1.));
#584=DIRECTION('ref_axis',(1.,0.,0.));
#585=DIRECTION('center_axis',(1.,0.,0.));
#586=DIRECTION('ref_axis',(0.,0.,-1.));
#587=DIRECTION('',(0.,0.,-1.));
#588=DIRECTION('',(0.,1.,0.));
#589=DIRECTION('',(0.,0.,-1.));
#590=DIRECTION('',(0.,1.,0.));
#591=DIRECTION('',(0.,0.,-1.));
#592=DIRECTION('',(0.,-1.,6.26738804223879E-17));
#593=DIRECTION('',(0.,0.,1.));
#594=DIRECTION('',(0.,1.,0.));
#595=DIRECTION('center_axis',(-1.,0.,0.));
#596=DIRECTION('ref_axis',(0.,0.,1.));
#597=DIRECTION('',(0.,0.,-1.));
#598=DIRECTION('',(0.,-1.,0.));
#599=DIRECTION('',(0.,0.,-1.));
#600=DIRECTION('',(0.,-1.,0.));
#601=DIRECTION('',(0.,0.,-1.));
#602=DIRECTION('',(0.,1.,-6.26738804223879E-17));
#603=DIRECTION('',(0.,0.,-1.));
#604=DIRECTION('',(0.,-1.,0.));
#605=DIRECTION('center_axis',(0.,-1.,0.));
#606=DIRECTION('ref_axis',(0.,0.,1.));
#607=DIRECTION('',(-1.,0.,0.));
#608=DIRECTION('',(1.,0.,0.));
#609=DIRECTION('center_axis',(0.,-1.,1.34572487833352E-16));
#610=DIRECTION('ref_axis',(0.,-1.34572487833352E-16,-1.));
#611=DIRECTION('',(1.,0.,0.));
#612=DIRECTION('',(-1.,0.,0.));
#613=DIRECTION('center_axis',(0.,-1.,1.34572487833352E-16));
#614=DIRECTION('ref_axis',(0.,-1.34572487833352E-16,-1.));
#615=DIRECTION('',(1.,0.,0.));
#616=DIRECTION('',(1.,0.,0.));
#617=DIRECTION('center_axis',(0.,1.,0.));
#618=DIRECTION('ref_axis',(0.,0.,-1.));
#619=DIRECTION('',(-1.,0.,0.));
#620=DIRECTION('',(-1.,0.,0.));
#621=DIRECTION('center_axis',(0.,1.,0.));
#622=DIRECTION('ref_axis',(0.,0.,1.));
#623=DIRECTION('',(-1.,0.,0.));
#624=DIRECTION('',(1.,0.,0.));
#625=DIRECTION('center_axis',(0.,6.26738804223879E-17,1.));
#626=DIRECTION('ref_axis',(0.,1.,-6.26738804223879E-17));
#627=DIRECTION('center_axis',(0.,0.,1.));
#628=DIRECTION('ref_axis',(0.,-1.,0.));
#629=DIRECTION('center_axis',(0.,0.,1.));
#630=DIRECTION('ref_axis',(0.,-1.,0.));
#631=DIRECTION('',(-1.,0.,0.));
#632=DIRECTION('center_axis',(0.,0.,1.));
#633=DIRECTION('ref_axis',(0.,-1.,0.));
#634=DIRECTION('',(-1.,0.,0.));
#635=DIRECTION('center_axis',(0.,0.,-1.));
#636=DIRECTION('ref_axis',(0.,1.,0.));
#637=DIRECTION('',(1.,0.,0.));
#638=DIRECTION('center_axis',(0.,-1.,0.));
#639=DIRECTION('ref_axis',(0.,0.,-1.));
#640=DIRECTION('center_axis',(0.,1.,0.));
#641=DIRECTION('ref_axis',(0.,0.,1.));
#642=DIRECTION('',(-1.,0.,0.));
#643=DIRECTION('',(1.,0.,0.));
#644=DIRECTION('center_axis',(0.,0.,-1.));
#645=DIRECTION('ref_axis',(0.,1.,0.));
#646=DIRECTION('',(-1.,0.,0.));
#647=DIRECTION('center_axis',(0.,0.,1.));
#648=DIRECTION('ref_axis',(0.,-1.,0.));
#649=DIRECTION('center_axis',(0.,1.,0.));
#650=DIRECTION('ref_axis',(0.,0.,1.));
#651=CARTESIAN_POINT('',(0.,0.,0.));
#652=CARTESIAN_POINT('Origin',(2.94722480071296,-30.4995714761088,-18.));
#653=CARTESIAN_POINT('',(6.69722480071296,-30.4995714761088,-18.));
#654=CARTESIAN_POINT('Origin',(2.94722480071296,-30.4995714761088,-18.));
#655=CARTESIAN_POINT('',(6.69722480071296,-30.4995714761088,-3.5));
#656=CARTESIAN_POINT('',(6.69722480071296,-30.4995714761088,-18.));
#657=CARTESIAN_POINT('Origin',(2.94722480071296,-30.4995714761088,-3.5));
#658=CARTESIAN_POINT('Origin',(3.,30.3,-18.));
#659=CARTESIAN_POINT('',(6.75,30.3,-18.));
#660=CARTESIAN_POINT('Origin',(3.,30.3,-18.));
#661=CARTESIAN_POINT('',(6.75,30.3,-3.5));
#662=CARTESIAN_POINT('',(6.75,30.3,-18.));
#663=CARTESIAN_POINT('Origin',(3.,30.3,-3.5));
#664=CARTESIAN_POINT('Origin',(-4.5,-0.1,-8.25));
#665=CARTESIAN_POINT('',(-4.5,-7.25,-1.1));
#666=CARTESIAN_POINT('',(-4.5,-7.25,-18.));
#667=CARTESIAN_POINT('',(-4.5,-7.25,-11.825));
#668=CARTESIAN_POINT('',(-4.5,-36.05,-18.));
#669=CARTESIAN_POINT('',(-4.5,8.15,-18.));
#670=CARTESIAN_POINT('',(-4.5,-36.05,-3.5));
#671=CARTESIAN_POINT('',(-4.5,-36.05,-18.));
#672=CARTESIAN_POINT('',(-4.5,-9.25,-3.5));
#673=CARTESIAN_POINT('',(-4.5,-36.05,-3.5));
#674=CARTESIAN_POINT('',(-4.5,-9.25,0.9));
#675=CARTESIAN_POINT('',(-4.5,-9.25,-16.5));
#676=CARTESIAN_POINT('',(-4.5,9.05,0.9));
#677=CARTESIAN_POINT('',(-4.5,8.15,0.9));
#678=CARTESIAN_POINT('',(-4.5,9.05,-3.5));
#679=CARTESIAN_POINT('',(-4.5,9.05,0.));
#680=CARTESIAN_POINT('',(-4.5,35.85,-3.5));
#681=CARTESIAN_POINT('',(-4.5,35.85,-3.5));
#682=CARTESIAN_POINT('',(-4.5,35.85,-18.));
#683=CARTESIAN_POINT('',(-4.5,35.85,-18.));
#684=CARTESIAN_POINT('',(-4.5,7.05,-18.));
#685=CARTESIAN_POINT('',(-4.5,8.15,-18.));
#686=CARTESIAN_POINT('',(-4.5,7.05,-1.1));
#687=CARTESIAN_POINT('',(-4.5,7.05,-16.5));
#688=CARTESIAN_POINT('',(-4.5,4.025,-1.1));
#689=CARTESIAN_POINT('Origin',(10.5,-0.1,-8.25));
#690=CARTESIAN_POINT('',(10.5,7.05,-1.1));
#691=CARTESIAN_POINT('',(10.5,7.05,-18.));
#692=CARTESIAN_POINT('',(10.5,7.05,-12.375));
#693=CARTESIAN_POINT('',(10.5,35.85,-18.));
#694=CARTESIAN_POINT('',(10.5,8.15,-18.));
#695=CARTESIAN_POINT('',(10.5,35.85,-3.5));
#696=CARTESIAN_POINT('',(10.5,35.85,-18.));
#697=CARTESIAN_POINT('',(10.5,9.05,-3.5));
#698=CARTESIAN_POINT('',(10.5,35.85,-3.5));
#699=CARTESIAN_POINT('',(10.5,9.05,0.9));
#700=CARTESIAN_POINT('',(10.5,9.05,0.));
#701=CARTESIAN_POINT('',(10.5,-9.25,0.9));
#702=CARTESIAN_POINT('',(10.5,-8.35,0.9));
#703=CARTESIAN_POINT('',(10.5,-9.25,-3.5));
#704=CARTESIAN_POINT('',(10.5,-9.25,0.));
#705=CARTESIAN_POINT('',(10.5,-36.05,-3.5));
#706=CARTESIAN_POINT('',(10.5,-36.05,-3.5));
#707=CARTESIAN_POINT('',(10.5,-36.05,-18.));
#708=CARTESIAN_POINT('',(10.5,-36.05,-18.));
#709=CARTESIAN_POINT('',(10.5,-7.25,-18.));
#710=CARTESIAN_POINT('',(10.5,-8.35,-18.));
#711=CARTESIAN_POINT('',(10.5,-7.25,-1.1));
#712=CARTESIAN_POINT('',(10.5,-7.25,-16.5));
#713=CARTESIAN_POINT('',(10.5,4.025,-1.1));
#714=CARTESIAN_POINT('Origin',(0.,-9.25,0.));
#715=CARTESIAN_POINT('',(0.,-9.25,-3.5));
#716=CARTESIAN_POINT('',(6.,-9.25,0.9));
#717=CARTESIAN_POINT('Origin',(0.,9.05,-16.5));
#718=CARTESIAN_POINT('',(0.,9.05,-3.5));
#719=CARTESIAN_POINT('',(0.,9.05,0.9));
#720=CARTESIAN_POINT('Origin',(0.,8.15,0.9));
#721=CARTESIAN_POINT('Origin',(3.5,-0.099999999999999,-0.800000000000001));
#722=CARTESIAN_POINT('',(3.5,7.05,-1.1));
#723=CARTESIAN_POINT('',(3.5,7.05,-18.));
#724=CARTESIAN_POINT('',(3.5,7.05,-16.5));
#725=CARTESIAN_POINT('',(3.5,-7.25,-1.1));
#726=CARTESIAN_POINT('',(3.5,4.025,-1.1));
#727=CARTESIAN_POINT('',(3.5,-7.25,-18.));
#728=CARTESIAN_POINT('',(3.5,-7.25,-15.4));
#729=CARTESIAN_POINT('',(3.5,-7.85,-18.));
#730=CARTESIAN_POINT('',(3.5,-0.35,-18.));
#731=CARTESIAN_POINT('',(3.5,-7.85,-0.500000000000001));
#732=CARTESIAN_POINT('',(3.5,-7.85,-16.5));
#733=CARTESIAN_POINT('',(3.5,7.65,-0.500000000000003));
#734=CARTESIAN_POINT('',(3.5,7.65,-0.500000000000002));
#735=CARTESIAN_POINT('',(3.5,7.65,-18.));
#736=CARTESIAN_POINT('',(3.5,7.65,-16.));
#737=CARTESIAN_POINT('',(3.5,-0.35,-18.));
#738=CARTESIAN_POINT('Origin',(2.5,-0.099999999999999,-0.800000000000001));
#739=CARTESIAN_POINT('',(2.5,-7.25,-1.1));
#740=CARTESIAN_POINT('',(2.5,-7.25,-18.));
#741=CARTESIAN_POINT('',(2.5,-7.25,-16.5));
#742=CARTESIAN_POINT('',(2.5,7.05,-1.1));
#743=CARTESIAN_POINT('',(2.5,4.025,-1.1));
#744=CARTESIAN_POINT('',(2.5,7.05,-18.));
#745=CARTESIAN_POINT('',(2.5,7.05,-15.4));
#746=CARTESIAN_POINT('',(2.5,7.65,-18.));
#747=CARTESIAN_POINT('',(2.5,-8.1,-18.));
#748=CARTESIAN_POINT('',(2.5,7.65,-0.500000000000003));
#749=CARTESIAN_POINT('',(2.5,7.65,-16.5));
#750=CARTESIAN_POINT('',(2.5,-7.85,-0.500000000000001));
#751=CARTESIAN_POINT('',(2.5,7.65,-0.500000000000002));
#752=CARTESIAN_POINT('',(2.5,-7.85,-18.));
#753=CARTESIAN_POINT('',(2.5,-7.85,-16.5));
#754=CARTESIAN_POINT('',(2.5,-8.1,-18.));
#755=CARTESIAN_POINT('Origin',(3.,-7.85,-16.));
#756=CARTESIAN_POINT('',(3.,-7.85,-0.500000000000001));
#757=CARTESIAN_POINT('',(1.75,-7.85,-18.));
#758=CARTESIAN_POINT('Origin',(0.,-7.25,-1.48029736616688E-16));
#759=CARTESIAN_POINT('',(1.25,-7.25,-18.));
#760=CARTESIAN_POINT('',(0.,-7.25,-1.1));
#761=CARTESIAN_POINT('Origin',(0.,-7.25,-1.48029736616688E-16));
#762=CARTESIAN_POINT('',(0.,-7.25,-1.1));
#763=CARTESIAN_POINT('',(3.,-7.25,-18.));
#764=CARTESIAN_POINT('Origin',(3.,7.65,-0.500000000000003));
#765=CARTESIAN_POINT('',(3.,7.65,-0.500000000000002));
#766=CARTESIAN_POINT('',(1.25,7.65,-18.));
#767=CARTESIAN_POINT('Origin',(0.,7.05,-16.5));
#768=CARTESIAN_POINT('',(1.75,7.05,-18.));
#769=CARTESIAN_POINT('',(6.,7.05,-1.1));
#770=CARTESIAN_POINT('Origin',(3.,-7.25,-0.500000000000001));
#771=CARTESIAN_POINT('Origin',(0.,8.15,-1.1));
#772=CARTESIAN_POINT('Origin',(0.,8.15,-1.1));
#773=CARTESIAN_POINT('',(0.,7.05,-1.1));
#774=CARTESIAN_POINT('Origin',(0.,-8.35,-3.5));
#775=CARTESIAN_POINT('',(0.,-36.05,-3.5));
#776=CARTESIAN_POINT('Origin',(0.,-36.05,-18.));
#777=CARTESIAN_POINT('',(0.,-36.05,-18.));
#778=CARTESIAN_POINT('Origin',(0.,-36.05,-3.5));
#779=CARTESIAN_POINT('Origin',(0.,35.85,-18.));
#780=CARTESIAN_POINT('',(0.,35.85,-3.5));
#781=CARTESIAN_POINT('',(0.,35.85,-18.));
#782=CARTESIAN_POINT('Origin',(0.,8.15,-18.));
#783=CARTESIAN_POINT('',(0.,7.05,-18.));
#784=CARTESIAN_POINT('Origin',(0.,35.85,-3.5));
#785=CARTESIAN_POINT('Origin',(0.,7.05,-16.5));
#786=UNCERTAINTY_MEASURE_WITH_UNIT(LENGTH_MEASURE(0.01),#790,
'DISTANCE_ACCURACY_VALUE',
'Maximum model space distance between geometric entities at asserted c
onnectivities');
#787=UNCERTAINTY_MEASURE_WITH_UNIT(LENGTH_MEASURE(0.01),#790,
'DISTANCE_ACCURACY_VALUE',
'Maximum model space distance between geometric entities at asserted c
onnectivities');
#788=(
GEOMETRIC_REPRESENTATION_CONTEXT(3)
GLOBAL_UNCERTAINTY_ASSIGNED_CONTEXT((#786))
GLOBAL_UNIT_ASSIGNED_CONTEXT((#790,#792,#793))
REPRESENTATION_CONTEXT('','3D')
);
#789=(
GEOMETRIC_REPRESENTATION_CONTEXT(3)
GLOBAL_UNCERTAINTY_ASSIGNED_CONTEXT((#787))
GLOBAL_UNIT_ASSIGNED_CONTEXT((#790,#792,#793))
REPRESENTATION_CONTEXT('','3D')
);
#790=(
LENGTH_UNIT()
NAMED_UNIT(*)
SI_UNIT(.MILLI.,.METRE.)
);
#791=(
LENGTH_UNIT()
NAMED_UNIT(*)
SI_UNIT($,.METRE.)
);
#792=(
NAMED_UNIT(*)
PLANE_ANGLE_UNIT()
SI_UNIT($,.RADIAN.)
);
#793=(
NAMED_UNIT(*)
SI_UNIT($,.STERADIAN.)
SOLID_ANGLE_UNIT()
);
#794=SHAPE_DEFINITION_REPRESENTATION(#795,#796);
#795=PRODUCT_DEFINITION_SHAPE('',$,#798);
#796=SHAPE_REPRESENTATION('',(#502),#788);
#797=PRODUCT_DEFINITION_CONTEXT('part definition',#802,'design');
#798=PRODUCT_DEFINITION('2026-07-09-10-14-52-773',
'TwoSiPM_Metalens_Holder_CRAB_3Walls',#799,#797);
#799=PRODUCT_DEFINITION_FORMATION('',$,#804);
#800=PRODUCT_RELATED_PRODUCT_CATEGORY(
'TwoSiPM_Metalens_Holder_CRAB_3Walls',
'TwoSiPM_Metalens_Holder_CRAB_3Walls',(#804));
#801=APPLICATION_PROTOCOL_DEFINITION('international standard',
'automotive_design',2009,#802);
#802=APPLICATION_CONTEXT(
'Core Data for Automotive Mechanical Design Process');
#803=PRODUCT_CONTEXT('part definition',#802,'mechanical');
#804=PRODUCT('2026-07-09-10-14-52-773',
'TwoSiPM_Metalens_Holder_CRAB_3Walls',$,(#803));
#805=PRESENTATION_STYLE_ASSIGNMENT((#806));
#806=SURFACE_STYLE_USAGE(.BOTH.,#807);
#807=SURFACE_SIDE_STYLE('',(#808));
#808=SURFACE_STYLE_FILL_AREA(#809);
#809=FILL_AREA_STYLE('Steel - Satin',(#810));
#810=FILL_AREA_STYLE_COLOUR('Steel - Satin',#811);
#811=COLOUR_RGB('Steel - Satin',0.627450980392157,0.627450980392157,0.627450980392157);
ENDSEC;
END-ISO-10303-21;
