ISO-10303-21;
HEADER;
/* Generated by software containing ST-Developer
 * from STEP Tools, Inc. (www.steptools.com) 
 */

FILE_DESCRIPTION(
/* description */ (''),
/* implementation_level */ '2;1');

FILE_NAME(
/* name */ 'TwoSiPM_Metalens_Holder.step',
/* time_stamp */ '2026-07-27T11:33:32+01:00',
/* author */ (''),
/* organization */ (''),
/* preprocessor_version */ 'ST-DEVELOPER v20.1',
/* originating_system */ 'Autodesk Translation Framework v15.8.0.0',
/* authorisation */ '');

FILE_SCHEMA (('AUTOMOTIVE_DESIGN { 1 0 10303 214 3 1 1 }'));
ENDSEC;

DATA;
#10=MECHANICAL_DESIGN_GEOMETRIC_PRESENTATION_REPRESENTATION('',(#13),#2171);
#11=SHAPE_REPRESENTATION_RELATIONSHIP('SRR','None',#2178,#12);
#12=ADVANCED_BREP_SHAPE_REPRESENTATION('',(#14),#2170);
#13=STYLED_ITEM('',(#2187),#14);
#14=MANIFOLD_SOLID_BREP('Body1',#1333);
#15=FACE_BOUND('',#170,.T.);
#16=FACE_BOUND('',#171,.T.);
#17=FACE_BOUND('',#174,.T.);
#18=FACE_BOUND('',#177,.T.);
#19=FACE_BOUND('',#178,.T.);
#20=FACE_BOUND('',#192,.T.);
#21=FACE_BOUND('',#193,.T.);
#22=FACE_BOUND('',#197,.T.);
#23=FACE_BOUND('',#198,.T.);
#24=FACE_BOUND('',#209,.T.);
#25=FACE_BOUND('',#210,.T.);
#26=FACE_BOUND('',#211,.T.);
#27=FACE_BOUND('',#212,.T.);
#28=FACE_BOUND('',#222,.T.);
#29=FACE_BOUND('',#227,.T.);
#30=FACE_BOUND('',#235,.T.);
#31=FACE_BOUND('',#236,.T.);
#32=FACE_BOUND('',#237,.T.);
#33=FACE_BOUND('',#238,.T.);
#34=PLANE('',#1362);
#35=PLANE('',#1366);
#36=PLANE('',#1367);
#37=PLANE('',#1371);
#38=PLANE('',#1375);
#39=PLANE('',#1376);
#40=PLANE('',#1377);
#41=PLANE('',#1378);
#42=PLANE('',#1379);
#43=PLANE('',#1380);
#44=PLANE('',#1381);
#45=PLANE('',#1382);
#46=PLANE('',#1383);
#47=PLANE('',#1384);
#48=PLANE('',#1388);
#49=PLANE('',#1392);
#50=PLANE('',#1396);
#51=PLANE('',#1400);
#52=PLANE('',#1401);
#53=PLANE('',#1402);
#54=PLANE('',#1403);
#55=PLANE('',#1404);
#56=PLANE('',#1405);
#57=PLANE('',#1406);
#58=PLANE('',#1407);
#59=PLANE('',#1408);
#60=PLANE('',#1409);
#61=PLANE('',#1410);
#62=PLANE('',#1411);
#63=PLANE('',#1412);
#64=PLANE('',#1413);
#65=PLANE('',#1414);
#66=PLANE('',#1415);
#67=PLANE('',#1416);
#68=PLANE('',#1417);
#69=PLANE('',#1421);
#70=PLANE('',#1422);
#71=PLANE('',#1423);
#72=PLANE('',#1424);
#73=PLANE('',#1425);
#74=PLANE('',#1426);
#75=PLANE('',#1427);
#76=PLANE('',#1428);
#77=PLANE('',#1429);
#78=PLANE('',#1430);
#79=PLANE('',#1433);
#80=PLANE('',#1434);
#81=PLANE('',#1435);
#82=PLANE('',#1438);
#83=PLANE('',#1439);
#84=PLANE('',#1440);
#85=PLANE('',#1443);
#86=FACE_OUTER_BOUND('',#153,.T.);
#87=FACE_OUTER_BOUND('',#154,.T.);
#88=FACE_OUTER_BOUND('',#155,.T.);
#89=FACE_OUTER_BOUND('',#156,.T.);
#90=FACE_OUTER_BOUND('',#157,.T.);
#91=FACE_OUTER_BOUND('',#158,.T.);
#92=FACE_OUTER_BOUND('',#159,.T.);
#93=FACE_OUTER_BOUND('',#160,.T.);
#94=FACE_OUTER_BOUND('',#161,.T.);
#95=FACE_OUTER_BOUND('',#162,.T.);
#96=FACE_OUTER_BOUND('',#163,.T.);
#97=FACE_OUTER_BOUND('',#164,.T.);
#98=FACE_OUTER_BOUND('',#165,.T.);
#99=FACE_OUTER_BOUND('',#166,.T.);
#100=FACE_OUTER_BOUND('',#167,.T.);
#101=FACE_OUTER_BOUND('',#168,.T.);
#102=FACE_OUTER_BOUND('',#169,.T.);
#103=FACE_OUTER_BOUND('',#172,.T.);
#104=FACE_OUTER_BOUND('',#173,.T.);
#105=FACE_OUTER_BOUND('',#175,.T.);
#106=FACE_OUTER_BOUND('',#176,.T.);
#107=FACE_OUTER_BOUND('',#179,.T.);
#108=FACE_OUTER_BOUND('',#180,.T.);
#109=FACE_OUTER_BOUND('',#181,.T.);
#110=FACE_OUTER_BOUND('',#182,.T.);
#111=FACE_OUTER_BOUND('',#183,.T.);
#112=FACE_OUTER_BOUND('',#184,.T.);
#113=FACE_OUTER_BOUND('',#185,.T.);
#114=FACE_OUTER_BOUND('',#186,.T.);
#115=FACE_OUTER_BOUND('',#187,.T.);
#116=FACE_OUTER_BOUND('',#188,.T.);
#117=FACE_OUTER_BOUND('',#189,.T.);
#118=FACE_OUTER_BOUND('',#190,.T.);
#119=FACE_OUTER_BOUND('',#191,.T.);
#120=FACE_OUTER_BOUND('',#194,.T.);
#121=FACE_OUTER_BOUND('',#195,.T.);
#122=FACE_OUTER_BOUND('',#196,.T.);
#123=FACE_OUTER_BOUND('',#199,.T.);
#124=FACE_OUTER_BOUND('',#200,.T.);
#125=FACE_OUTER_BOUND('',#201,.T.);
#126=FACE_OUTER_BOUND('',#202,.T.);
#127=FACE_OUTER_BOUND('',#203,.T.);
#128=FACE_OUTER_BOUND('',#204,.T.);
#129=FACE_OUTER_BOUND('',#205,.T.);
#130=FACE_OUTER_BOUND('',#206,.T.);
#131=FACE_OUTER_BOUND('',#207,.T.);
#132=FACE_OUTER_BOUND('',#208,.T.);
#133=FACE_OUTER_BOUND('',#213,.T.);
#134=FACE_OUTER_BOUND('',#214,.T.);
#135=FACE_OUTER_BOUND('',#215,.T.);
#136=FACE_OUTER_BOUND('',#216,.T.);
#137=FACE_OUTER_BOUND('',#217,.T.);
#138=FACE_OUTER_BOUND('',#218,.T.);
#139=FACE_OUTER_BOUND('',#219,.T.);
#140=FACE_OUTER_BOUND('',#220,.T.);
#141=FACE_OUTER_BOUND('',#221,.T.);
#142=FACE_OUTER_BOUND('',#223,.T.);
#143=FACE_OUTER_BOUND('',#224,.T.);
#144=FACE_OUTER_BOUND('',#225,.T.);
#145=FACE_OUTER_BOUND('',#226,.T.);
#146=FACE_OUTER_BOUND('',#228,.T.);
#147=FACE_OUTER_BOUND('',#229,.T.);
#148=FACE_OUTER_BOUND('',#230,.T.);
#149=FACE_OUTER_BOUND('',#231,.T.);
#150=FACE_OUTER_BOUND('',#232,.T.);
#151=FACE_OUTER_BOUND('',#233,.T.);
#152=FACE_OUTER_BOUND('',#234,.T.);
#153=EDGE_LOOP('',(#883,#884,#885,#886));
#154=EDGE_LOOP('',(#887,#888,#889,#890));
#155=EDGE_LOOP('',(#891,#892,#893,#894));
#156=EDGE_LOOP('',(#895,#896,#897,#898));
#157=EDGE_LOOP('',(#899,#900,#901,#902));
#158=EDGE_LOOP('',(#903,#904,#905,#906));
#159=EDGE_LOOP('',(#907,#908,#909,#910));
#160=EDGE_LOOP('',(#911,#912,#913,#914));
#161=EDGE_LOOP('',(#915,#916,#917,#918));
#162=EDGE_LOOP('',(#919,#920,#921,#922));
#163=EDGE_LOOP('',(#923,#924,#925,#926));
#164=EDGE_LOOP('',(#927,#928,#929,#930));
#165=EDGE_LOOP('',(#931,#932,#933,#934));
#166=EDGE_LOOP('',(#935,#936,#937,#938));
#167=EDGE_LOOP('',(#939,#940,#941,#942));
#168=EDGE_LOOP('',(#943,#944,#945,#946));
#169=EDGE_LOOP('',(#947,#948,#949,#950));
#170=EDGE_LOOP('',(#951,#952,#953,#954));
#171=EDGE_LOOP('',(#955,#956,#957,#958));
#172=EDGE_LOOP('',(#959,#960,#961,#962));
#173=EDGE_LOOP('',(#963,#964,#965,#966));
#174=EDGE_LOOP('',(#967,#968,#969,#970));
#175=EDGE_LOOP('',(#971,#972,#973,#974));
#176=EDGE_LOOP('',(#975,#976,#977,#978));
#177=EDGE_LOOP('',(#979,#980,#981,#982));
#178=EDGE_LOOP('',(#983,#984,#985,#986));
#179=EDGE_LOOP('',(#987,#988,#989,#990));
#180=EDGE_LOOP('',(#991,#992,#993,#994));
#181=EDGE_LOOP('',(#995,#996,#997,#998));
#182=EDGE_LOOP('',(#999,#1000,#1001,#1002));
#183=EDGE_LOOP('',(#1003,#1004,#1005,#1006));
#184=EDGE_LOOP('',(#1007,#1008,#1009,#1010));
#185=EDGE_LOOP('',(#1011,#1012,#1013,#1014));
#186=EDGE_LOOP('',(#1015,#1016,#1017,#1018));
#187=EDGE_LOOP('',(#1019,#1020,#1021,#1022));
#188=EDGE_LOOP('',(#1023,#1024,#1025,#1026));
#189=EDGE_LOOP('',(#1027,#1028,#1029,#1030));
#190=EDGE_LOOP('',(#1031,#1032,#1033,#1034));
#191=EDGE_LOOP('',(#1035,#1036,#1037,#1038));
#192=EDGE_LOOP('',(#1039,#1040,#1041,#1042));
#193=EDGE_LOOP('',(#1043,#1044,#1045,#1046));
#194=EDGE_LOOP('',(#1047,#1048,#1049,#1050,#1051,#1052,#1053,#1054));
#195=EDGE_LOOP('',(#1055,#1056,#1057,#1058));
#196=EDGE_LOOP('',(#1059,#1060,#1061,#1062));
#197=EDGE_LOOP('',(#1063,#1064,#1065,#1066));
#198=EDGE_LOOP('',(#1067,#1068,#1069,#1070));
#199=EDGE_LOOP('',(#1071,#1072,#1073,#1074));
#200=EDGE_LOOP('',(#1075,#1076,#1077,#1078));
#201=EDGE_LOOP('',(#1079,#1080,#1081,#1082));
#202=EDGE_LOOP('',(#1083,#1084,#1085,#1086,#1087,#1088));
#203=EDGE_LOOP('',(#1089,#1090,#1091,#1092,#1093,#1094,#1095));
#204=EDGE_LOOP('',(#1096,#1097,#1098,#1099));
#205=EDGE_LOOP('',(#1100,#1101,#1102,#1103,#1104));
#206=EDGE_LOOP('',(#1105,#1106,#1107,#1108));
#207=EDGE_LOOP('',(#1109,#1110,#1111,#1112,#1113,#1114));
#208=EDGE_LOOP('',(#1115,#1116,#1117,#1118,#1119,#1120,#1121,#1122,#1123,
#1124,#1125,#1126,#1127,#1128,#1129,#1130,#1131));
#209=EDGE_LOOP('',(#1132));
#210=EDGE_LOOP('',(#1133));
#211=EDGE_LOOP('',(#1134));
#212=EDGE_LOOP('',(#1135));
#213=EDGE_LOOP('',(#1136,#1137,#1138,#1139,#1140));
#214=EDGE_LOOP('',(#1141,#1142,#1143,#1144));
#215=EDGE_LOOP('',(#1145,#1146,#1147,#1148));
#216=EDGE_LOOP('',(#1149,#1150,#1151,#1152,#1153,#1154));
#217=EDGE_LOOP('',(#1155,#1156,#1157,#1158,#1159,#1160,#1161,#1162));
#218=EDGE_LOOP('',(#1163,#1164,#1165,#1166));
#219=EDGE_LOOP('',(#1167,#1168,#1169,#1170));
#220=EDGE_LOOP('',(#1171,#1172,#1173,#1174));
#221=EDGE_LOOP('',(#1175,#1176,#1177,#1178));
#222=EDGE_LOOP('',(#1179,#1180,#1181,#1182,#1183,#1184,#1185,#1186));
#223=EDGE_LOOP('',(#1187,#1188,#1189,#1190));
#224=EDGE_LOOP('',(#1191,#1192,#1193,#1194));
#225=EDGE_LOOP('',(#1195,#1196,#1197,#1198));
#226=EDGE_LOOP('',(#1199,#1200,#1201,#1202));
#227=EDGE_LOOP('',(#1203,#1204,#1205,#1206));
#228=EDGE_LOOP('',(#1207,#1208,#1209,#1210));
#229=EDGE_LOOP('',(#1211,#1212,#1213,#1214));
#230=EDGE_LOOP('',(#1215,#1216,#1217,#1218,#1219,#1220));
#231=EDGE_LOOP('',(#1221,#1222,#1223,#1224));
#232=EDGE_LOOP('',(#1225,#1226,#1227,#1228,#1229,#1230));
#233=EDGE_LOOP('',(#1231,#1232,#1233,#1234));
#234=EDGE_LOOP('',(#1235,#1236,#1237,#1238,#1239,#1240,#1241,#1242,#1243,
#1244,#1245,#1246));
#235=EDGE_LOOP('',(#1247));
#236=EDGE_LOOP('',(#1248));
#237=EDGE_LOOP('',(#1249));
#238=EDGE_LOOP('',(#1250));
#239=LINE('',#1799,#393);
#240=LINE('',#1805,#394);
#241=LINE('',#1811,#395);
#242=LINE('',#1817,#396);
#243=LINE('',#1824,#397);
#244=LINE('',#1827,#398);
#245=LINE('',#1830,#399);
#246=LINE('',#1832,#400);
#247=LINE('',#1833,#401);
#248=LINE('',#1839,#402);
#249=LINE('',#1841,#403);
#250=LINE('',#1842,#404);
#251=LINE('',#1846,#405);
#252=LINE('',#1848,#406);
#253=LINE('',#1850,#407);
#254=LINE('',#1851,#408);
#255=LINE('',#1857,#409);
#256=LINE('',#1860,#410);
#257=LINE('',#1862,#411);
#258=LINE('',#1863,#412);
#259=LINE('',#1870,#413);
#260=LINE('',#1872,#414);
#261=LINE('',#1874,#415);
#262=LINE('',#1875,#416);
#263=LINE('',#1878,#417);
#264=LINE('',#1880,#418);
#265=LINE('',#1881,#419);
#266=LINE('',#1884,#420);
#267=LINE('',#1886,#421);
#268=LINE('',#1887,#422);
#269=LINE('',#1889,#423);
#270=LINE('',#1890,#424);
#271=LINE('',#1895,#425);
#272=LINE('',#1897,#426);
#273=LINE('',#1899,#427);
#274=LINE('',#1900,#428);
#275=LINE('',#1903,#429);
#276=LINE('',#1905,#430);
#277=LINE('',#1906,#431);
#278=LINE('',#1909,#432);
#279=LINE('',#1911,#433);
#280=LINE('',#1912,#434);
#281=LINE('',#1914,#435);
#282=LINE('',#1915,#436);
#283=LINE('',#1922,#437);
#284=LINE('',#1925,#438);
#285=LINE('',#1928,#439);
#286=LINE('',#1930,#440);
#287=LINE('',#1931,#441);
#288=LINE('',#1937,#442);
#289=LINE('',#1939,#443);
#290=LINE('',#1940,#444);
#291=LINE('',#1946,#445);
#292=LINE('',#1949,#446);
#293=LINE('',#1952,#447);
#294=LINE('',#1954,#448);
#295=LINE('',#1955,#449);
#296=LINE('',#1961,#450);
#297=LINE('',#1963,#451);
#298=LINE('',#1964,#452);
#299=LINE('',#1968,#453);
#300=LINE('',#1970,#454);
#301=LINE('',#1972,#455);
#302=LINE('',#1973,#456);
#303=LINE('',#1976,#457);
#304=LINE('',#1978,#458);
#305=LINE('',#1979,#459);
#306=LINE('',#1982,#460);
#307=LINE('',#1984,#461);
#308=LINE('',#1985,#462);
#309=LINE('',#1987,#463);
#310=LINE('',#1990,#464);
#311=LINE('',#1992,#465);
#312=LINE('',#1994,#466);
#313=LINE('',#1996,#467);
#314=LINE('',#1997,#468);
#315=LINE('',#2000,#469);
#316=LINE('',#2002,#470);
#317=LINE('',#2003,#471);
#318=LINE('',#2006,#472);
#319=LINE('',#2008,#473);
#320=LINE('',#2009,#474);
#321=LINE('',#2011,#475);
#322=LINE('',#2012,#476);
#323=LINE('',#2017,#477);
#324=LINE('',#2019,#478);
#325=LINE('',#2021,#479);
#326=LINE('',#2022,#480);
#327=LINE('',#2025,#481);
#328=LINE('',#2027,#482);
#329=LINE('',#2029,#483);
#330=LINE('',#2031,#484);
#331=LINE('',#2032,#485);
#332=LINE('',#2035,#486);
#333=LINE('',#2037,#487);
#334=LINE('',#2039,#488);
#335=LINE('',#2041,#489);
#336=LINE('',#2043,#490);
#337=LINE('',#2044,#491);
#338=LINE('',#2048,#492);
#339=LINE('',#2050,#493);
#340=LINE('',#2052,#494);
#341=LINE('',#2053,#495);
#342=LINE('',#2055,#496);
#343=LINE('',#2057,#497);
#344=LINE('',#2058,#498);
#345=LINE('',#2061,#499);
#346=LINE('',#2062,#500);
#347=LINE('',#2065,#501);
#348=LINE('',#2067,#502);
#349=LINE('',#2068,#503);
#350=LINE('',#2071,#504);
#351=LINE('',#2072,#505);
#352=LINE('',#2074,#506);
#353=LINE('',#2078,#507);
#354=LINE('',#2080,#508);
#355=LINE('',#2082,#509);
#356=LINE('',#2086,#510);
#357=LINE('',#2088,#511);
#358=LINE('',#2090,#512);
#359=LINE('',#2093,#513);
#360=LINE('',#2096,#514);
#361=LINE('',#2098,#515);
#362=LINE('',#2099,#516);
#363=LINE('',#2102,#517);
#364=LINE('',#2103,#518);
#365=LINE('',#2106,#519);
#366=LINE('',#2107,#520);
#367=LINE('',#2110,#521);
#368=LINE('',#2112,#522);
#369=LINE('',#2113,#523);
#370=LINE('',#2115,#524);
#371=LINE('',#2117,#525);
#372=LINE('',#2122,#526);
#373=LINE('',#2123,#527);
#374=LINE('',#2124,#528);
#375=LINE('',#2127,#529);
#376=LINE('',#2128,#530);
#377=LINE('',#2131,#531);
#378=LINE('',#2132,#532);
#379=LINE('',#2136,#533);
#380=LINE('',#2139,#534);
#381=LINE('',#2140,#535);
#382=LINE('',#2143,#536);
#383=LINE('',#2144,#537);
#384=LINE('',#2147,#538);
#385=LINE('',#2148,#539);
#386=LINE('',#2152,#540);
#387=LINE('',#2155,#541);
#388=LINE('',#2156,#542);
#389=LINE('',#2159,#543);
#390=LINE('',#2160,#544);
#391=LINE('',#2163,#545);
#392=LINE('',#2164,#546);
#393=VECTOR('',#1450,1.5);
#394=VECTOR('',#1457,1.5);
#395=VECTOR('',#1464,1.5);
#396=VECTOR('',#1471,1.5);
#397=VECTOR('',#1478,10.);
#398=VECTOR('',#1481,10.);
#399=VECTOR('',#1484,10.);
#400=VECTOR('',#1485,10.);
#401=VECTOR('',#1486,10.);
#402=VECTOR('',#1493,10.);
#403=VECTOR('',#1496,10.);
#404=VECTOR('',#1497,10.);
#405=VECTOR('',#1500,10.);
#406=VECTOR('',#1501,10.);
#407=VECTOR('',#1502,10.);
#408=VECTOR('',#1503,10.);
#409=VECTOR('',#1510,10.);
#410=VECTOR('',#1513,10.);
#411=VECTOR('',#1514,10.);
#412=VECTOR('',#1515,10.);
#413=VECTOR('',#1524,10.);
#414=VECTOR('',#1525,10.);
#415=VECTOR('',#1526,10.);
#416=VECTOR('',#1527,10.);
#417=VECTOR('',#1530,10.);
#418=VECTOR('',#1531,10.);
#419=VECTOR('',#1532,10.);
#420=VECTOR('',#1535,10.);
#421=VECTOR('',#1536,10.);
#422=VECTOR('',#1537,10.);
#423=VECTOR('',#1540,10.);
#424=VECTOR('',#1541,10.);
#425=VECTOR('',#1546,10.);
#426=VECTOR('',#1547,10.);
#427=VECTOR('',#1548,10.);
#428=VECTOR('',#1549,10.);
#429=VECTOR('',#1552,10.);
#430=VECTOR('',#1553,10.);
#431=VECTOR('',#1554,10.);
#432=VECTOR('',#1557,10.);
#433=VECTOR('',#1558,10.);
#434=VECTOR('',#1559,10.);
#435=VECTOR('',#1562,10.);
#436=VECTOR('',#1563,10.);
#437=VECTOR('',#1570,10.);
#438=VECTOR('',#1573,10.);
#439=VECTOR('',#1576,10.);
#440=VECTOR('',#1577,10.);
#441=VECTOR('',#1578,10.);
#442=VECTOR('',#1585,10.);
#443=VECTOR('',#1588,10.);
#444=VECTOR('',#1589,10.);
#445=VECTOR('',#1594,10.);
#446=VECTOR('',#1597,10.);
#447=VECTOR('',#1600,10.);
#448=VECTOR('',#1601,10.);
#449=VECTOR('',#1602,10.);
#450=VECTOR('',#1609,10.);
#451=VECTOR('',#1612,10.);
#452=VECTOR('',#1613,10.);
#453=VECTOR('',#1616,10.);
#454=VECTOR('',#1617,10.);
#455=VECTOR('',#1618,10.);
#456=VECTOR('',#1619,10.);
#457=VECTOR('',#1622,10.);
#458=VECTOR('',#1623,10.);
#459=VECTOR('',#1624,10.);
#460=VECTOR('',#1627,10.);
#461=VECTOR('',#1628,10.);
#462=VECTOR('',#1629,10.);
#463=VECTOR('',#1632,10.);
#464=VECTOR('',#1635,10.);
#465=VECTOR('',#1636,10.);
#466=VECTOR('',#1637,10.);
#467=VECTOR('',#1638,10.);
#468=VECTOR('',#1639,10.);
#469=VECTOR('',#1642,10.);
#470=VECTOR('',#1643,10.);
#471=VECTOR('',#1644,10.);
#472=VECTOR('',#1647,10.);
#473=VECTOR('',#1648,10.);
#474=VECTOR('',#1649,10.);
#475=VECTOR('',#1652,10.);
#476=VECTOR('',#1653,10.);
#477=VECTOR('',#1658,10.);
#478=VECTOR('',#1659,10.);
#479=VECTOR('',#1660,10.);
#480=VECTOR('',#1661,10.);
#481=VECTOR('',#1664,10.);
#482=VECTOR('',#1665,10.);
#483=VECTOR('',#1666,10.);
#484=VECTOR('',#1667,10.);
#485=VECTOR('',#1668,10.);
#486=VECTOR('',#1671,10.);
#487=VECTOR('',#1672,10.);
#488=VECTOR('',#1673,10.);
#489=VECTOR('',#1674,10.);
#490=VECTOR('',#1675,10.);
#491=VECTOR('',#1676,10.);
#492=VECTOR('',#1679,10.);
#493=VECTOR('',#1680,10.);
#494=VECTOR('',#1681,10.);
#495=VECTOR('',#1682,10.);
#496=VECTOR('',#1685,10.);
#497=VECTOR('',#1686,10.);
#498=VECTOR('',#1687,10.);
#499=VECTOR('',#1690,10.);
#500=VECTOR('',#1691,10.);
#501=VECTOR('',#1694,10.);
#502=VECTOR('',#1695,10.);
#503=VECTOR('',#1696,10.);
#504=VECTOR('',#1699,10.);
#505=VECTOR('',#1700,10.);
#506=VECTOR('',#1701,10.);
#507=VECTOR('',#1704,10.);
#508=VECTOR('',#1705,10.);
#509=VECTOR('',#1706,10.);
#510=VECTOR('',#1709,10.);
#511=VECTOR('',#1710,10.);
#512=VECTOR('',#1711,10.);
#513=VECTOR('',#1714,10.);
#514=VECTOR('',#1717,10.);
#515=VECTOR('',#1718,10.);
#516=VECTOR('',#1719,10.);
#517=VECTOR('',#1722,10.);
#518=VECTOR('',#1723,10.);
#519=VECTOR('',#1726,10.);
#520=VECTOR('',#1727,10.);
#521=VECTOR('',#1730,10.);
#522=VECTOR('',#1731,10.);
#523=VECTOR('',#1732,10.);
#524=VECTOR('',#1735,10.);
#525=VECTOR('',#1738,10.);
#526=VECTOR('',#1743,10.);
#527=VECTOR('',#1744,10.);
#528=VECTOR('',#1745,10.);
#529=VECTOR('',#1748,10.);
#530=VECTOR('',#1749,10.);
#531=VECTOR('',#1752,10.);
#532=VECTOR('',#1753,10.);
#533=VECTOR('',#1758,10.);
#534=VECTOR('',#1761,10.);
#535=VECTOR('',#1762,10.);
#536=VECTOR('',#1765,10.);
#537=VECTOR('',#1766,10.);
#538=VECTOR('',#1769,10.);
#539=VECTOR('',#1770,10.);
#540=VECTOR('',#1775,10.);
#541=VECTOR('',#1778,10.);
#542=VECTOR('',#1779,10.);
#543=VECTOR('',#1782,10.);
#544=VECTOR('',#1783,10.);
#545=VECTOR('',#1786,10.);
#546=VECTOR('',#1787,10.);
#547=CIRCLE('',#1348,1.5);
#548=CIRCLE('',#1349,1.5);
#549=CIRCLE('',#1351,1.5);
#550=CIRCLE('',#1352,1.5);
#551=CIRCLE('',#1354,1.5);
#552=CIRCLE('',#1355,1.5);
#553=CIRCLE('',#1357,1.5);
#554=CIRCLE('',#1358,1.5);
#555=CIRCLE('',#1360,1.);
#556=CIRCLE('',#1361,1.);
#557=CIRCLE('',#1364,1.);
#558=CIRCLE('',#1365,1.);
#559=CIRCLE('',#1369,1.);
#560=CIRCLE('',#1370,1.);
#561=CIRCLE('',#1373,1.);
#562=CIRCLE('',#1374,1.);
#563=CIRCLE('',#1386,1.);
#564=CIRCLE('',#1387,1.);
#565=CIRCLE('',#1390,1.);
#566=CIRCLE('',#1391,1.);
#567=CIRCLE('',#1394,1.);
#568=CIRCLE('',#1395,1.);
#569=CIRCLE('',#1398,1.);
#570=CIRCLE('',#1399,1.);
#571=CIRCLE('',#1418,19.);
#572=CIRCLE('',#1419,19.);
#573=CIRCLE('',#1420,19.);
#574=CIRCLE('',#1432,19.);
#575=CIRCLE('',#1437,19.);
#576=CIRCLE('',#1442,19.);
#577=VERTEX_POINT('',#1796);
#578=VERTEX_POINT('',#1798);
#579=VERTEX_POINT('',#1802);
#580=VERTEX_POINT('',#1804);
#581=VERTEX_POINT('',#1808);
#582=VERTEX_POINT('',#1810);
#583=VERTEX_POINT('',#1814);
#584=VERTEX_POINT('',#1816);
#585=VERTEX_POINT('',#1820);
#586=VERTEX_POINT('',#1821);
#587=VERTEX_POINT('',#1823);
#588=VERTEX_POINT('',#1825);
#589=VERTEX_POINT('',#1829);
#590=VERTEX_POINT('',#1831);
#591=VERTEX_POINT('',#1835);
#592=VERTEX_POINT('',#1837);
#593=VERTEX_POINT('',#1844);
#594=VERTEX_POINT('',#1845);
#595=VERTEX_POINT('',#1847);
#596=VERTEX_POINT('',#1849);
#597=VERTEX_POINT('',#1853);
#598=VERTEX_POINT('',#1855);
#599=VERTEX_POINT('',#1859);
#600=VERTEX_POINT('',#1861);
#601=VERTEX_POINT('',#1868);
#602=VERTEX_POINT('',#1869);
#603=VERTEX_POINT('',#1871);
#604=VERTEX_POINT('',#1873);
#605=VERTEX_POINT('',#1877);
#606=VERTEX_POINT('',#1879);
#607=VERTEX_POINT('',#1883);
#608=VERTEX_POINT('',#1885);
#609=VERTEX_POINT('',#1893);
#610=VERTEX_POINT('',#1894);
#611=VERTEX_POINT('',#1896);
#612=VERTEX_POINT('',#1898);
#613=VERTEX_POINT('',#1902);
#614=VERTEX_POINT('',#1904);
#615=VERTEX_POINT('',#1908);
#616=VERTEX_POINT('',#1910);
#617=VERTEX_POINT('',#1918);
#618=VERTEX_POINT('',#1919);
#619=VERTEX_POINT('',#1921);
#620=VERTEX_POINT('',#1923);
#621=VERTEX_POINT('',#1927);
#622=VERTEX_POINT('',#1929);
#623=VERTEX_POINT('',#1933);
#624=VERTEX_POINT('',#1935);
#625=VERTEX_POINT('',#1942);
#626=VERTEX_POINT('',#1943);
#627=VERTEX_POINT('',#1945);
#628=VERTEX_POINT('',#1947);
#629=VERTEX_POINT('',#1951);
#630=VERTEX_POINT('',#1953);
#631=VERTEX_POINT('',#1957);
#632=VERTEX_POINT('',#1959);
#633=VERTEX_POINT('',#1966);
#634=VERTEX_POINT('',#1967);
#635=VERTEX_POINT('',#1969);
#636=VERTEX_POINT('',#1971);
#637=VERTEX_POINT('',#1975);
#638=VERTEX_POINT('',#1977);
#639=VERTEX_POINT('',#1981);
#640=VERTEX_POINT('',#1983);
#641=VERTEX_POINT('',#1989);
#642=VERTEX_POINT('',#1991);
#643=VERTEX_POINT('',#1993);
#644=VERTEX_POINT('',#1995);
#645=VERTEX_POINT('',#1999);
#646=VERTEX_POINT('',#2001);
#647=VERTEX_POINT('',#2005);
#648=VERTEX_POINT('',#2007);
#649=VERTEX_POINT('',#2015);
#650=VERTEX_POINT('',#2016);
#651=VERTEX_POINT('',#2018);
#652=VERTEX_POINT('',#2020);
#653=VERTEX_POINT('',#2024);
#654=VERTEX_POINT('',#2026);
#655=VERTEX_POINT('',#2028);
#656=VERTEX_POINT('',#2030);
#657=VERTEX_POINT('',#2034);
#658=VERTEX_POINT('',#2036);
#659=VERTEX_POINT('',#2038);
#660=VERTEX_POINT('',#2040);
#661=VERTEX_POINT('',#2042);
#662=VERTEX_POINT('',#2046);
#663=VERTEX_POINT('',#2047);
#664=VERTEX_POINT('',#2049);
#665=VERTEX_POINT('',#2051);
#666=VERTEX_POINT('',#2056);
#667=VERTEX_POINT('',#2060);
#668=VERTEX_POINT('',#2064);
#669=VERTEX_POINT('',#2066);
#670=VERTEX_POINT('',#2070);
#671=VERTEX_POINT('',#2073);
#672=VERTEX_POINT('',#2075);
#673=VERTEX_POINT('',#2077);
#674=VERTEX_POINT('',#2079);
#675=VERTEX_POINT('',#2081);
#676=VERTEX_POINT('',#2083);
#677=VERTEX_POINT('',#2085);
#678=VERTEX_POINT('',#2087);
#679=VERTEX_POINT('',#2089);
#680=VERTEX_POINT('',#2091);
#681=VERTEX_POINT('',#2095);
#682=VERTEX_POINT('',#2097);
#683=VERTEX_POINT('',#2101);
#684=VERTEX_POINT('',#2105);
#685=VERTEX_POINT('',#2109);
#686=VERTEX_POINT('',#2111);
#687=VERTEX_POINT('',#2120);
#688=VERTEX_POINT('',#2121);
#689=VERTEX_POINT('',#2126);
#690=VERTEX_POINT('',#2130);
#691=VERTEX_POINT('',#2134);
#692=VERTEX_POINT('',#2138);
#693=VERTEX_POINT('',#2142);
#694=VERTEX_POINT('',#2146);
#695=VERTEX_POINT('',#2150);
#696=VERTEX_POINT('',#2154);
#697=VERTEX_POINT('',#2158);
#698=VERTEX_POINT('',#2162);
#699=EDGE_CURVE('',#577,#577,#547,.T.);
#700=EDGE_CURVE('',#577,#578,#239,.T.);
#701=EDGE_CURVE('',#578,#578,#548,.T.);
#702=EDGE_CURVE('',#579,#579,#549,.T.);
#703=EDGE_CURVE('',#579,#580,#240,.T.);
#704=EDGE_CURVE('',#580,#580,#550,.T.);
#705=EDGE_CURVE('',#581,#581,#551,.T.);
#706=EDGE_CURVE('',#581,#582,#241,.T.);
#707=EDGE_CURVE('',#582,#582,#552,.T.);
#708=EDGE_CURVE('',#583,#583,#553,.T.);
#709=EDGE_CURVE('',#583,#584,#242,.T.);
#710=EDGE_CURVE('',#584,#584,#554,.T.);
#711=EDGE_CURVE('',#585,#586,#555,.T.);
#712=EDGE_CURVE('',#587,#585,#243,.T.);
#713=EDGE_CURVE('',#588,#587,#556,.T.);
#714=EDGE_CURVE('',#588,#586,#244,.T.);
#715=EDGE_CURVE('',#586,#589,#245,.T.);
#716=EDGE_CURVE('',#590,#588,#246,.T.);
#717=EDGE_CURVE('',#590,#589,#247,.T.);
#718=EDGE_CURVE('',#589,#591,#557,.T.);
#719=EDGE_CURVE('',#592,#590,#558,.T.);
#720=EDGE_CURVE('',#592,#591,#248,.T.);
#721=EDGE_CURVE('',#591,#585,#249,.T.);
#722=EDGE_CURVE('',#587,#592,#250,.T.);
#723=EDGE_CURVE('',#593,#594,#251,.T.);
#724=EDGE_CURVE('',#595,#593,#252,.T.);
#725=EDGE_CURVE('',#596,#595,#253,.T.);
#726=EDGE_CURVE('',#596,#594,#254,.T.);
#727=EDGE_CURVE('',#594,#597,#559,.T.);
#728=EDGE_CURVE('',#598,#596,#560,.T.);
#729=EDGE_CURVE('',#598,#597,#255,.T.);
#730=EDGE_CURVE('',#597,#599,#256,.T.);
#731=EDGE_CURVE('',#600,#598,#257,.T.);
#732=EDGE_CURVE('',#600,#599,#258,.T.);
#733=EDGE_CURVE('',#599,#593,#561,.T.);
#734=EDGE_CURVE('',#595,#600,#562,.T.);
#735=EDGE_CURVE('',#601,#602,#259,.T.);
#736=EDGE_CURVE('',#601,#603,#260,.T.);
#737=EDGE_CURVE('',#603,#604,#261,.T.);
#738=EDGE_CURVE('',#602,#604,#262,.T.);
#739=EDGE_CURVE('',#605,#601,#263,.T.);
#740=EDGE_CURVE('',#605,#606,#264,.T.);
#741=EDGE_CURVE('',#606,#603,#265,.T.);
#742=EDGE_CURVE('',#607,#605,#266,.T.);
#743=EDGE_CURVE('',#607,#608,#267,.T.);
#744=EDGE_CURVE('',#608,#606,#268,.T.);
#745=EDGE_CURVE('',#602,#607,#269,.T.);
#746=EDGE_CURVE('',#604,#608,#270,.T.);
#747=EDGE_CURVE('',#609,#610,#271,.T.);
#748=EDGE_CURVE('',#609,#611,#272,.T.);
#749=EDGE_CURVE('',#612,#611,#273,.T.);
#750=EDGE_CURVE('',#610,#612,#274,.T.);
#751=EDGE_CURVE('',#610,#613,#275,.T.);
#752=EDGE_CURVE('',#614,#612,#276,.T.);
#753=EDGE_CURVE('',#613,#614,#277,.T.);
#754=EDGE_CURVE('',#613,#615,#278,.T.);
#755=EDGE_CURVE('',#616,#614,#279,.T.);
#756=EDGE_CURVE('',#615,#616,#280,.T.);
#757=EDGE_CURVE('',#615,#609,#281,.T.);
#758=EDGE_CURVE('',#611,#616,#282,.T.);
#759=EDGE_CURVE('',#617,#618,#563,.T.);
#760=EDGE_CURVE('',#619,#617,#283,.T.);
#761=EDGE_CURVE('',#620,#619,#564,.T.);
#762=EDGE_CURVE('',#620,#618,#284,.T.);
#763=EDGE_CURVE('',#618,#621,#285,.T.);
#764=EDGE_CURVE('',#622,#620,#286,.T.);
#765=EDGE_CURVE('',#622,#621,#287,.T.);
#766=EDGE_CURVE('',#621,#623,#565,.T.);
#767=EDGE_CURVE('',#624,#622,#566,.T.);
#768=EDGE_CURVE('',#624,#623,#288,.T.);
#769=EDGE_CURVE('',#623,#617,#289,.T.);
#770=EDGE_CURVE('',#619,#624,#290,.T.);
#771=EDGE_CURVE('',#625,#626,#567,.T.);
#772=EDGE_CURVE('',#627,#625,#291,.T.);
#773=EDGE_CURVE('',#628,#627,#568,.T.);
#774=EDGE_CURVE('',#628,#626,#292,.T.);
#775=EDGE_CURVE('',#626,#629,#293,.T.);
#776=EDGE_CURVE('',#630,#628,#294,.T.);
#777=EDGE_CURVE('',#630,#629,#295,.T.);
#778=EDGE_CURVE('',#629,#631,#569,.T.);
#779=EDGE_CURVE('',#632,#630,#570,.T.);
#780=EDGE_CURVE('',#632,#631,#296,.T.);
#781=EDGE_CURVE('',#631,#625,#297,.T.);
#782=EDGE_CURVE('',#627,#632,#298,.T.);
#783=EDGE_CURVE('',#633,#634,#299,.T.);
#784=EDGE_CURVE('',#633,#635,#300,.T.);
#785=EDGE_CURVE('',#635,#636,#301,.T.);
#786=EDGE_CURVE('',#634,#636,#302,.T.);
#787=EDGE_CURVE('',#637,#633,#303,.T.);
#788=EDGE_CURVE('',#637,#638,#304,.T.);
#789=EDGE_CURVE('',#638,#635,#305,.T.);
#790=EDGE_CURVE('',#639,#637,#306,.T.);
#791=EDGE_CURVE('',#639,#640,#307,.T.);
#792=EDGE_CURVE('',#640,#638,#308,.T.);
#793=EDGE_CURVE('',#636,#640,#309,.T.);
#794=EDGE_CURVE('',#641,#634,#310,.T.);
#795=EDGE_CURVE('',#641,#642,#311,.T.);
#796=EDGE_CURVE('',#643,#642,#312,.T.);
#797=EDGE_CURVE('',#644,#643,#313,.T.);
#798=EDGE_CURVE('',#639,#644,#314,.T.);
#799=EDGE_CURVE('',#644,#645,#315,.T.);
#800=EDGE_CURVE('',#646,#643,#316,.T.);
#801=EDGE_CURVE('',#645,#646,#317,.T.);
#802=EDGE_CURVE('',#645,#647,#318,.T.);
#803=EDGE_CURVE('',#648,#646,#319,.T.);
#804=EDGE_CURVE('',#647,#648,#320,.T.);
#805=EDGE_CURVE('',#647,#641,#321,.T.);
#806=EDGE_CURVE('',#642,#648,#322,.T.);
#807=EDGE_CURVE('',#649,#650,#323,.T.);
#808=EDGE_CURVE('',#651,#649,#324,.T.);
#809=EDGE_CURVE('',#652,#651,#325,.T.);
#810=EDGE_CURVE('',#650,#652,#326,.T.);
#811=EDGE_CURVE('',#653,#651,#327,.T.);
#812=EDGE_CURVE('',#653,#654,#328,.T.);
#813=EDGE_CURVE('',#655,#654,#329,.T.);
#814=EDGE_CURVE('',#655,#656,#330,.T.);
#815=EDGE_CURVE('',#652,#656,#331,.T.);
#816=EDGE_CURVE('',#654,#657,#332,.T.);
#817=EDGE_CURVE('',#657,#658,#333,.T.);
#818=EDGE_CURVE('',#659,#658,#334,.T.);
#819=EDGE_CURVE('',#660,#659,#335,.T.);
#820=EDGE_CURVE('',#660,#661,#336,.T.);
#821=EDGE_CURVE('',#655,#661,#337,.T.);
#822=EDGE_CURVE('',#662,#663,#338,.T.);
#823=EDGE_CURVE('',#663,#664,#339,.T.);
#824=EDGE_CURVE('',#665,#664,#340,.T.);
#825=EDGE_CURVE('',#662,#665,#341,.T.);
#826=EDGE_CURVE('',#663,#655,#342,.T.);
#827=EDGE_CURVE('',#666,#661,#343,.T.);
#828=EDGE_CURVE('',#664,#666,#344,.T.);
#829=EDGE_CURVE('',#667,#666,#345,.T.);
#830=EDGE_CURVE('',#667,#665,#346,.T.);
#831=EDGE_CURVE('',#660,#668,#347,.T.);
#832=EDGE_CURVE('',#669,#668,#348,.T.);
#833=EDGE_CURVE('',#667,#669,#349,.T.);
#834=EDGE_CURVE('',#662,#670,#350,.T.);
#835=EDGE_CURVE('',#670,#654,#351,.T.);
#836=EDGE_CURVE('',#653,#671,#352,.T.);
#837=EDGE_CURVE('',#671,#672,#571,.T.);
#838=EDGE_CURVE('',#672,#673,#353,.T.);
#839=EDGE_CURVE('',#673,#674,#354,.T.);
#840=EDGE_CURVE('',#674,#675,#355,.T.);
#841=EDGE_CURVE('',#675,#676,#572,.T.);
#842=EDGE_CURVE('',#676,#677,#356,.T.);
#843=EDGE_CURVE('',#677,#678,#357,.T.);
#844=EDGE_CURVE('',#678,#679,#358,.T.);
#845=EDGE_CURVE('',#679,#680,#573,.T.);
#846=EDGE_CURVE('',#680,#656,#359,.T.);
#847=EDGE_CURVE('',#670,#681,#360,.T.);
#848=EDGE_CURVE('',#682,#681,#361,.T.);
#849=EDGE_CURVE('',#657,#682,#362,.T.);
#850=EDGE_CURVE('',#683,#682,#363,.T.);
#851=EDGE_CURVE('',#658,#683,#364,.T.);
#852=EDGE_CURVE('',#681,#684,#365,.T.);
#853=EDGE_CURVE('',#683,#684,#366,.T.);
#854=EDGE_CURVE('',#684,#685,#367,.T.);
#855=EDGE_CURVE('',#686,#685,#368,.T.);
#856=EDGE_CURVE('',#659,#686,#369,.T.);
#857=EDGE_CURVE('',#685,#669,#370,.T.);
#858=EDGE_CURVE('',#668,#686,#371,.T.);
#859=EDGE_CURVE('',#687,#688,#372,.T.);
#860=EDGE_CURVE('',#688,#679,#373,.T.);
#861=EDGE_CURVE('',#687,#678,#374,.T.);
#862=EDGE_CURVE('',#687,#689,#375,.T.);
#863=EDGE_CURVE('',#689,#677,#376,.T.);
#864=EDGE_CURVE('',#689,#690,#377,.T.);
#865=EDGE_CURVE('',#690,#676,#378,.T.);
#866=EDGE_CURVE('',#691,#690,#574,.T.);
#867=EDGE_CURVE('',#691,#675,#379,.T.);
#868=EDGE_CURVE('',#692,#691,#380,.T.);
#869=EDGE_CURVE('',#692,#674,#381,.T.);
#870=EDGE_CURVE('',#693,#692,#382,.T.);
#871=EDGE_CURVE('',#693,#673,#383,.T.);
#872=EDGE_CURVE('',#693,#694,#384,.T.);
#873=EDGE_CURVE('',#694,#672,#385,.T.);
#874=EDGE_CURVE('',#695,#694,#575,.T.);
#875=EDGE_CURVE('',#695,#671,#386,.T.);
#876=EDGE_CURVE('',#696,#649,#387,.T.);
#877=EDGE_CURVE('',#696,#695,#388,.T.);
#878=EDGE_CURVE('',#697,#650,#389,.T.);
#879=EDGE_CURVE('',#697,#696,#390,.T.);
#880=EDGE_CURVE('',#698,#680,#391,.T.);
#881=EDGE_CURVE('',#697,#698,#392,.T.);
#882=EDGE_CURVE('',#688,#698,#576,.T.);
#883=ORIENTED_EDGE('',*,*,#699,.F.);
#884=ORIENTED_EDGE('',*,*,#700,.T.);
#885=ORIENTED_EDGE('',*,*,#701,.F.);
#886=ORIENTED_EDGE('',*,*,#700,.F.);
#887=ORIENTED_EDGE('',*,*,#702,.F.);
#888=ORIENTED_EDGE('',*,*,#703,.T.);
#889=ORIENTED_EDGE('',*,*,#704,.F.);
#890=ORIENTED_EDGE('',*,*,#703,.F.);
#891=ORIENTED_EDGE('',*,*,#705,.F.);
#892=ORIENTED_EDGE('',*,*,#706,.T.);
#893=ORIENTED_EDGE('',*,*,#707,.F.);
#894=ORIENTED_EDGE('',*,*,#706,.F.);
#895=ORIENTED_EDGE('',*,*,#708,.F.);
#896=ORIENTED_EDGE('',*,*,#709,.T.);
#897=ORIENTED_EDGE('',*,*,#710,.F.);
#898=ORIENTED_EDGE('',*,*,#709,.F.);
#899=ORIENTED_EDGE('',*,*,#711,.F.);
#900=ORIENTED_EDGE('',*,*,#712,.F.);
#901=ORIENTED_EDGE('',*,*,#713,.F.);
#902=ORIENTED_EDGE('',*,*,#714,.T.);
#903=ORIENTED_EDGE('',*,*,#715,.F.);
#904=ORIENTED_EDGE('',*,*,#714,.F.);
#905=ORIENTED_EDGE('',*,*,#716,.F.);
#906=ORIENTED_EDGE('',*,*,#717,.T.);
#907=ORIENTED_EDGE('',*,*,#718,.F.);
#908=ORIENTED_EDGE('',*,*,#717,.F.);
#909=ORIENTED_EDGE('',*,*,#719,.F.);
#910=ORIENTED_EDGE('',*,*,#720,.T.);
#911=ORIENTED_EDGE('',*,*,#721,.F.);
#912=ORIENTED_EDGE('',*,*,#720,.F.);
#913=ORIENTED_EDGE('',*,*,#722,.F.);
#914=ORIENTED_EDGE('',*,*,#712,.T.);
#915=ORIENTED_EDGE('',*,*,#723,.F.);
#916=ORIENTED_EDGE('',*,*,#724,.F.);
#917=ORIENTED_EDGE('',*,*,#725,.F.);
#918=ORIENTED_EDGE('',*,*,#726,.T.);
#919=ORIENTED_EDGE('',*,*,#727,.F.);
#920=ORIENTED_EDGE('',*,*,#726,.F.);
#921=ORIENTED_EDGE('',*,*,#728,.F.);
#922=ORIENTED_EDGE('',*,*,#729,.T.);
#923=ORIENTED_EDGE('',*,*,#730,.F.);
#924=ORIENTED_EDGE('',*,*,#729,.F.);
#925=ORIENTED_EDGE('',*,*,#731,.F.);
#926=ORIENTED_EDGE('',*,*,#732,.T.);
#927=ORIENTED_EDGE('',*,*,#733,.F.);
#928=ORIENTED_EDGE('',*,*,#732,.F.);
#929=ORIENTED_EDGE('',*,*,#734,.F.);
#930=ORIENTED_EDGE('',*,*,#724,.T.);
#931=ORIENTED_EDGE('',*,*,#735,.F.);
#932=ORIENTED_EDGE('',*,*,#736,.T.);
#933=ORIENTED_EDGE('',*,*,#737,.T.);
#934=ORIENTED_EDGE('',*,*,#738,.F.);
#935=ORIENTED_EDGE('',*,*,#739,.F.);
#936=ORIENTED_EDGE('',*,*,#740,.T.);
#937=ORIENTED_EDGE('',*,*,#741,.T.);
#938=ORIENTED_EDGE('',*,*,#736,.F.);
#939=ORIENTED_EDGE('',*,*,#742,.F.);
#940=ORIENTED_EDGE('',*,*,#743,.T.);
#941=ORIENTED_EDGE('',*,*,#744,.T.);
#942=ORIENTED_EDGE('',*,*,#740,.F.);
#943=ORIENTED_EDGE('',*,*,#745,.F.);
#944=ORIENTED_EDGE('',*,*,#738,.T.);
#945=ORIENTED_EDGE('',*,*,#746,.T.);
#946=ORIENTED_EDGE('',*,*,#743,.F.);
#947=ORIENTED_EDGE('',*,*,#746,.F.);
#948=ORIENTED_EDGE('',*,*,#737,.F.);
#949=ORIENTED_EDGE('',*,*,#741,.F.);
#950=ORIENTED_EDGE('',*,*,#744,.F.);
#951=ORIENTED_EDGE('',*,*,#719,.T.);
#952=ORIENTED_EDGE('',*,*,#716,.T.);
#953=ORIENTED_EDGE('',*,*,#713,.T.);
#954=ORIENTED_EDGE('',*,*,#722,.T.);
#955=ORIENTED_EDGE('',*,*,#731,.T.);
#956=ORIENTED_EDGE('',*,*,#728,.T.);
#957=ORIENTED_EDGE('',*,*,#725,.T.);
#958=ORIENTED_EDGE('',*,*,#734,.T.);
#959=ORIENTED_EDGE('',*,*,#747,.F.);
#960=ORIENTED_EDGE('',*,*,#748,.T.);
#961=ORIENTED_EDGE('',*,*,#749,.F.);
#962=ORIENTED_EDGE('',*,*,#750,.F.);
#963=ORIENTED_EDGE('',*,*,#751,.F.);
#964=ORIENTED_EDGE('',*,*,#750,.T.);
#965=ORIENTED_EDGE('',*,*,#752,.F.);
#966=ORIENTED_EDGE('',*,*,#753,.F.);
#967=ORIENTED_EDGE('',*,*,#735,.T.);
#968=ORIENTED_EDGE('',*,*,#745,.T.);
#969=ORIENTED_EDGE('',*,*,#742,.T.);
#970=ORIENTED_EDGE('',*,*,#739,.T.);
#971=ORIENTED_EDGE('',*,*,#754,.F.);
#972=ORIENTED_EDGE('',*,*,#753,.T.);
#973=ORIENTED_EDGE('',*,*,#755,.F.);
#974=ORIENTED_EDGE('',*,*,#756,.F.);
#975=ORIENTED_EDGE('',*,*,#757,.F.);
#976=ORIENTED_EDGE('',*,*,#756,.T.);
#977=ORIENTED_EDGE('',*,*,#758,.F.);
#978=ORIENTED_EDGE('',*,*,#748,.F.);
#979=ORIENTED_EDGE('',*,*,#718,.T.);
#980=ORIENTED_EDGE('',*,*,#721,.T.);
#981=ORIENTED_EDGE('',*,*,#711,.T.);
#982=ORIENTED_EDGE('',*,*,#715,.T.);
#983=ORIENTED_EDGE('',*,*,#730,.T.);
#984=ORIENTED_EDGE('',*,*,#733,.T.);
#985=ORIENTED_EDGE('',*,*,#723,.T.);
#986=ORIENTED_EDGE('',*,*,#727,.T.);
#987=ORIENTED_EDGE('',*,*,#758,.T.);
#988=ORIENTED_EDGE('',*,*,#755,.T.);
#989=ORIENTED_EDGE('',*,*,#752,.T.);
#990=ORIENTED_EDGE('',*,*,#749,.T.);
#991=ORIENTED_EDGE('',*,*,#759,.F.);
#992=ORIENTED_EDGE('',*,*,#760,.F.);
#993=ORIENTED_EDGE('',*,*,#761,.F.);
#994=ORIENTED_EDGE('',*,*,#762,.T.);
#995=ORIENTED_EDGE('',*,*,#763,.F.);
#996=ORIENTED_EDGE('',*,*,#762,.F.);
#997=ORIENTED_EDGE('',*,*,#764,.F.);
#998=ORIENTED_EDGE('',*,*,#765,.T.);
#999=ORIENTED_EDGE('',*,*,#766,.F.);
#1000=ORIENTED_EDGE('',*,*,#765,.F.);
#1001=ORIENTED_EDGE('',*,*,#767,.F.);
#1002=ORIENTED_EDGE('',*,*,#768,.T.);
#1003=ORIENTED_EDGE('',*,*,#769,.F.);
#1004=ORIENTED_EDGE('',*,*,#768,.F.);
#1005=ORIENTED_EDGE('',*,*,#770,.F.);
#1006=ORIENTED_EDGE('',*,*,#760,.T.);
#1007=ORIENTED_EDGE('',*,*,#771,.F.);
#1008=ORIENTED_EDGE('',*,*,#772,.F.);
#1009=ORIENTED_EDGE('',*,*,#773,.F.);
#1010=ORIENTED_EDGE('',*,*,#774,.T.);
#1011=ORIENTED_EDGE('',*,*,#775,.F.);
#1012=ORIENTED_EDGE('',*,*,#774,.F.);
#1013=ORIENTED_EDGE('',*,*,#776,.F.);
#1014=ORIENTED_EDGE('',*,*,#777,.T.);
#1015=ORIENTED_EDGE('',*,*,#778,.F.);
#1016=ORIENTED_EDGE('',*,*,#777,.F.);
#1017=ORIENTED_EDGE('',*,*,#779,.F.);
#1018=ORIENTED_EDGE('',*,*,#780,.T.);
#1019=ORIENTED_EDGE('',*,*,#781,.F.);
#1020=ORIENTED_EDGE('',*,*,#780,.F.);
#1021=ORIENTED_EDGE('',*,*,#782,.F.);
#1022=ORIENTED_EDGE('',*,*,#772,.T.);
#1023=ORIENTED_EDGE('',*,*,#783,.F.);
#1024=ORIENTED_EDGE('',*,*,#784,.T.);
#1025=ORIENTED_EDGE('',*,*,#785,.T.);
#1026=ORIENTED_EDGE('',*,*,#786,.F.);
#1027=ORIENTED_EDGE('',*,*,#787,.F.);
#1028=ORIENTED_EDGE('',*,*,#788,.T.);
#1029=ORIENTED_EDGE('',*,*,#789,.T.);
#1030=ORIENTED_EDGE('',*,*,#784,.F.);
#1031=ORIENTED_EDGE('',*,*,#790,.F.);
#1032=ORIENTED_EDGE('',*,*,#791,.T.);
#1033=ORIENTED_EDGE('',*,*,#792,.T.);
#1034=ORIENTED_EDGE('',*,*,#788,.F.);
#1035=ORIENTED_EDGE('',*,*,#792,.F.);
#1036=ORIENTED_EDGE('',*,*,#793,.F.);
#1037=ORIENTED_EDGE('',*,*,#785,.F.);
#1038=ORIENTED_EDGE('',*,*,#789,.F.);
#1039=ORIENTED_EDGE('',*,*,#767,.T.);
#1040=ORIENTED_EDGE('',*,*,#764,.T.);
#1041=ORIENTED_EDGE('',*,*,#761,.T.);
#1042=ORIENTED_EDGE('',*,*,#770,.T.);
#1043=ORIENTED_EDGE('',*,*,#779,.T.);
#1044=ORIENTED_EDGE('',*,*,#776,.T.);
#1045=ORIENTED_EDGE('',*,*,#773,.T.);
#1046=ORIENTED_EDGE('',*,*,#782,.T.);
#1047=ORIENTED_EDGE('',*,*,#790,.T.);
#1048=ORIENTED_EDGE('',*,*,#787,.T.);
#1049=ORIENTED_EDGE('',*,*,#783,.T.);
#1050=ORIENTED_EDGE('',*,*,#794,.F.);
#1051=ORIENTED_EDGE('',*,*,#795,.T.);
#1052=ORIENTED_EDGE('',*,*,#796,.F.);
#1053=ORIENTED_EDGE('',*,*,#797,.F.);
#1054=ORIENTED_EDGE('',*,*,#798,.F.);
#1055=ORIENTED_EDGE('',*,*,#799,.F.);
#1056=ORIENTED_EDGE('',*,*,#797,.T.);
#1057=ORIENTED_EDGE('',*,*,#800,.F.);
#1058=ORIENTED_EDGE('',*,*,#801,.F.);
#1059=ORIENTED_EDGE('',*,*,#802,.F.);
#1060=ORIENTED_EDGE('',*,*,#801,.T.);
#1061=ORIENTED_EDGE('',*,*,#803,.F.);
#1062=ORIENTED_EDGE('',*,*,#804,.F.);
#1063=ORIENTED_EDGE('',*,*,#766,.T.);
#1064=ORIENTED_EDGE('',*,*,#769,.T.);
#1065=ORIENTED_EDGE('',*,*,#759,.T.);
#1066=ORIENTED_EDGE('',*,*,#763,.T.);
#1067=ORIENTED_EDGE('',*,*,#778,.T.);
#1068=ORIENTED_EDGE('',*,*,#781,.T.);
#1069=ORIENTED_EDGE('',*,*,#771,.T.);
#1070=ORIENTED_EDGE('',*,*,#775,.T.);
#1071=ORIENTED_EDGE('',*,*,#805,.F.);
#1072=ORIENTED_EDGE('',*,*,#804,.T.);
#1073=ORIENTED_EDGE('',*,*,#806,.F.);
#1074=ORIENTED_EDGE('',*,*,#795,.F.);
#1075=ORIENTED_EDGE('',*,*,#796,.T.);
#1076=ORIENTED_EDGE('',*,*,#806,.T.);
#1077=ORIENTED_EDGE('',*,*,#803,.T.);
#1078=ORIENTED_EDGE('',*,*,#800,.T.);
#1079=ORIENTED_EDGE('',*,*,#807,.F.);
#1080=ORIENTED_EDGE('',*,*,#808,.F.);
#1081=ORIENTED_EDGE('',*,*,#809,.F.);
#1082=ORIENTED_EDGE('',*,*,#810,.F.);
#1083=ORIENTED_EDGE('',*,*,#811,.F.);
#1084=ORIENTED_EDGE('',*,*,#812,.T.);
#1085=ORIENTED_EDGE('',*,*,#813,.F.);
#1086=ORIENTED_EDGE('',*,*,#814,.T.);
#1087=ORIENTED_EDGE('',*,*,#815,.F.);
#1088=ORIENTED_EDGE('',*,*,#809,.T.);
#1089=ORIENTED_EDGE('',*,*,#813,.T.);
#1090=ORIENTED_EDGE('',*,*,#816,.T.);
#1091=ORIENTED_EDGE('',*,*,#817,.T.);
#1092=ORIENTED_EDGE('',*,*,#818,.F.);
#1093=ORIENTED_EDGE('',*,*,#819,.F.);
#1094=ORIENTED_EDGE('',*,*,#820,.T.);
#1095=ORIENTED_EDGE('',*,*,#821,.F.);
#1096=ORIENTED_EDGE('',*,*,#822,.T.);
#1097=ORIENTED_EDGE('',*,*,#823,.T.);
#1098=ORIENTED_EDGE('',*,*,#824,.F.);
#1099=ORIENTED_EDGE('',*,*,#825,.F.);
#1100=ORIENTED_EDGE('',*,*,#826,.T.);
#1101=ORIENTED_EDGE('',*,*,#821,.T.);
#1102=ORIENTED_EDGE('',*,*,#827,.F.);
#1103=ORIENTED_EDGE('',*,*,#828,.F.);
#1104=ORIENTED_EDGE('',*,*,#823,.F.);
#1105=ORIENTED_EDGE('',*,*,#828,.T.);
#1106=ORIENTED_EDGE('',*,*,#829,.F.);
#1107=ORIENTED_EDGE('',*,*,#830,.T.);
#1108=ORIENTED_EDGE('',*,*,#824,.T.);
#1109=ORIENTED_EDGE('',*,*,#829,.T.);
#1110=ORIENTED_EDGE('',*,*,#827,.T.);
#1111=ORIENTED_EDGE('',*,*,#820,.F.);
#1112=ORIENTED_EDGE('',*,*,#831,.T.);
#1113=ORIENTED_EDGE('',*,*,#832,.F.);
#1114=ORIENTED_EDGE('',*,*,#833,.F.);
#1115=ORIENTED_EDGE('',*,*,#822,.F.);
#1116=ORIENTED_EDGE('',*,*,#834,.T.);
#1117=ORIENTED_EDGE('',*,*,#835,.T.);
#1118=ORIENTED_EDGE('',*,*,#812,.F.);
#1119=ORIENTED_EDGE('',*,*,#836,.T.);
#1120=ORIENTED_EDGE('',*,*,#837,.T.);
#1121=ORIENTED_EDGE('',*,*,#838,.T.);
#1122=ORIENTED_EDGE('',*,*,#839,.T.);
#1123=ORIENTED_EDGE('',*,*,#840,.T.);
#1124=ORIENTED_EDGE('',*,*,#841,.T.);
#1125=ORIENTED_EDGE('',*,*,#842,.T.);
#1126=ORIENTED_EDGE('',*,*,#843,.T.);
#1127=ORIENTED_EDGE('',*,*,#844,.T.);
#1128=ORIENTED_EDGE('',*,*,#845,.T.);
#1129=ORIENTED_EDGE('',*,*,#846,.T.);
#1130=ORIENTED_EDGE('',*,*,#814,.F.);
#1131=ORIENTED_EDGE('',*,*,#826,.F.);
#1132=ORIENTED_EDGE('',*,*,#699,.T.);
#1133=ORIENTED_EDGE('',*,*,#702,.T.);
#1134=ORIENTED_EDGE('',*,*,#705,.T.);
#1135=ORIENTED_EDGE('',*,*,#708,.T.);
#1136=ORIENTED_EDGE('',*,*,#835,.F.);
#1137=ORIENTED_EDGE('',*,*,#847,.T.);
#1138=ORIENTED_EDGE('',*,*,#848,.F.);
#1139=ORIENTED_EDGE('',*,*,#849,.F.);
#1140=ORIENTED_EDGE('',*,*,#816,.F.);
#1141=ORIENTED_EDGE('',*,*,#817,.F.);
#1142=ORIENTED_EDGE('',*,*,#849,.T.);
#1143=ORIENTED_EDGE('',*,*,#850,.F.);
#1144=ORIENTED_EDGE('',*,*,#851,.F.);
#1145=ORIENTED_EDGE('',*,*,#852,.T.);
#1146=ORIENTED_EDGE('',*,*,#853,.F.);
#1147=ORIENTED_EDGE('',*,*,#850,.T.);
#1148=ORIENTED_EDGE('',*,*,#848,.T.);
#1149=ORIENTED_EDGE('',*,*,#851,.T.);
#1150=ORIENTED_EDGE('',*,*,#853,.T.);
#1151=ORIENTED_EDGE('',*,*,#854,.T.);
#1152=ORIENTED_EDGE('',*,*,#855,.F.);
#1153=ORIENTED_EDGE('',*,*,#856,.F.);
#1154=ORIENTED_EDGE('',*,*,#818,.T.);
#1155=ORIENTED_EDGE('',*,*,#834,.F.);
#1156=ORIENTED_EDGE('',*,*,#825,.T.);
#1157=ORIENTED_EDGE('',*,*,#830,.F.);
#1158=ORIENTED_EDGE('',*,*,#833,.T.);
#1159=ORIENTED_EDGE('',*,*,#857,.F.);
#1160=ORIENTED_EDGE('',*,*,#854,.F.);
#1161=ORIENTED_EDGE('',*,*,#852,.F.);
#1162=ORIENTED_EDGE('',*,*,#847,.F.);
#1163=ORIENTED_EDGE('',*,*,#819,.T.);
#1164=ORIENTED_EDGE('',*,*,#856,.T.);
#1165=ORIENTED_EDGE('',*,*,#858,.F.);
#1166=ORIENTED_EDGE('',*,*,#831,.F.);
#1167=ORIENTED_EDGE('',*,*,#858,.T.);
#1168=ORIENTED_EDGE('',*,*,#855,.T.);
#1169=ORIENTED_EDGE('',*,*,#857,.T.);
#1170=ORIENTED_EDGE('',*,*,#832,.T.);
#1171=ORIENTED_EDGE('',*,*,#859,.T.);
#1172=ORIENTED_EDGE('',*,*,#860,.T.);
#1173=ORIENTED_EDGE('',*,*,#844,.F.);
#1174=ORIENTED_EDGE('',*,*,#861,.F.);
#1175=ORIENTED_EDGE('',*,*,#862,.F.);
#1176=ORIENTED_EDGE('',*,*,#861,.T.);
#1177=ORIENTED_EDGE('',*,*,#843,.F.);
#1178=ORIENTED_EDGE('',*,*,#863,.F.);
#1179=ORIENTED_EDGE('',*,*,#799,.T.);
#1180=ORIENTED_EDGE('',*,*,#802,.T.);
#1181=ORIENTED_EDGE('',*,*,#805,.T.);
#1182=ORIENTED_EDGE('',*,*,#794,.T.);
#1183=ORIENTED_EDGE('',*,*,#786,.T.);
#1184=ORIENTED_EDGE('',*,*,#793,.T.);
#1185=ORIENTED_EDGE('',*,*,#791,.F.);
#1186=ORIENTED_EDGE('',*,*,#798,.T.);
#1187=ORIENTED_EDGE('',*,*,#864,.F.);
#1188=ORIENTED_EDGE('',*,*,#863,.T.);
#1189=ORIENTED_EDGE('',*,*,#842,.F.);
#1190=ORIENTED_EDGE('',*,*,#865,.F.);
#1191=ORIENTED_EDGE('',*,*,#866,.T.);
#1192=ORIENTED_EDGE('',*,*,#865,.T.);
#1193=ORIENTED_EDGE('',*,*,#841,.F.);
#1194=ORIENTED_EDGE('',*,*,#867,.F.);
#1195=ORIENTED_EDGE('',*,*,#868,.T.);
#1196=ORIENTED_EDGE('',*,*,#867,.T.);
#1197=ORIENTED_EDGE('',*,*,#840,.F.);
#1198=ORIENTED_EDGE('',*,*,#869,.F.);
#1199=ORIENTED_EDGE('',*,*,#870,.T.);
#1200=ORIENTED_EDGE('',*,*,#869,.T.);
#1201=ORIENTED_EDGE('',*,*,#839,.F.);
#1202=ORIENTED_EDGE('',*,*,#871,.F.);
#1203=ORIENTED_EDGE('',*,*,#747,.T.);
#1204=ORIENTED_EDGE('',*,*,#751,.T.);
#1205=ORIENTED_EDGE('',*,*,#754,.T.);
#1206=ORIENTED_EDGE('',*,*,#757,.T.);
#1207=ORIENTED_EDGE('',*,*,#872,.F.);
#1208=ORIENTED_EDGE('',*,*,#871,.T.);
#1209=ORIENTED_EDGE('',*,*,#838,.F.);
#1210=ORIENTED_EDGE('',*,*,#873,.F.);
#1211=ORIENTED_EDGE('',*,*,#874,.T.);
#1212=ORIENTED_EDGE('',*,*,#873,.T.);
#1213=ORIENTED_EDGE('',*,*,#837,.F.);
#1214=ORIENTED_EDGE('',*,*,#875,.F.);
#1215=ORIENTED_EDGE('',*,*,#808,.T.);
#1216=ORIENTED_EDGE('',*,*,#876,.F.);
#1217=ORIENTED_EDGE('',*,*,#877,.T.);
#1218=ORIENTED_EDGE('',*,*,#875,.T.);
#1219=ORIENTED_EDGE('',*,*,#836,.F.);
#1220=ORIENTED_EDGE('',*,*,#811,.T.);
#1221=ORIENTED_EDGE('',*,*,#807,.T.);
#1222=ORIENTED_EDGE('',*,*,#878,.F.);
#1223=ORIENTED_EDGE('',*,*,#879,.T.);
#1224=ORIENTED_EDGE('',*,*,#876,.T.);
#1225=ORIENTED_EDGE('',*,*,#815,.T.);
#1226=ORIENTED_EDGE('',*,*,#846,.F.);
#1227=ORIENTED_EDGE('',*,*,#880,.F.);
#1228=ORIENTED_EDGE('',*,*,#881,.F.);
#1229=ORIENTED_EDGE('',*,*,#878,.T.);
#1230=ORIENTED_EDGE('',*,*,#810,.T.);
#1231=ORIENTED_EDGE('',*,*,#882,.T.);
#1232=ORIENTED_EDGE('',*,*,#880,.T.);
#1233=ORIENTED_EDGE('',*,*,#845,.F.);
#1234=ORIENTED_EDGE('',*,*,#860,.F.);
#1235=ORIENTED_EDGE('',*,*,#882,.F.);
#1236=ORIENTED_EDGE('',*,*,#859,.F.);
#1237=ORIENTED_EDGE('',*,*,#862,.T.);
#1238=ORIENTED_EDGE('',*,*,#864,.T.);
#1239=ORIENTED_EDGE('',*,*,#866,.F.);
#1240=ORIENTED_EDGE('',*,*,#868,.F.);
#1241=ORIENTED_EDGE('',*,*,#870,.F.);
#1242=ORIENTED_EDGE('',*,*,#872,.T.);
#1243=ORIENTED_EDGE('',*,*,#874,.F.);
#1244=ORIENTED_EDGE('',*,*,#877,.F.);
#1245=ORIENTED_EDGE('',*,*,#879,.F.);
#1246=ORIENTED_EDGE('',*,*,#881,.T.);
#1247=ORIENTED_EDGE('',*,*,#701,.T.);
#1248=ORIENTED_EDGE('',*,*,#704,.T.);
#1249=ORIENTED_EDGE('',*,*,#707,.T.);
#1250=ORIENTED_EDGE('',*,*,#710,.T.);
#1251=CYLINDRICAL_SURFACE('',#1347,1.5);
#1252=CYLINDRICAL_SURFACE('',#1350,1.5);
#1253=CYLINDRICAL_SURFACE('',#1353,1.5);
#1254=CYLINDRICAL_SURFACE('',#1356,1.5);
#1255=CYLINDRICAL_SURFACE('',#1359,1.);
#1256=CYLINDRICAL_SURFACE('',#1363,1.);
#1257=CYLINDRICAL_SURFACE('',#1368,1.);
#1258=CYLINDRICAL_SURFACE('',#1372,1.);
#1259=CYLINDRICAL_SURFACE('',#1385,1.);
#1260=CYLINDRICAL_SURFACE('',#1389,1.);
#1261=CYLINDRICAL_SURFACE('',#1393,1.);
#1262=CYLINDRICAL_SURFACE('',#1397,1.);
#1263=CYLINDRICAL_SURFACE('',#1431,19.);
#1264=CYLINDRICAL_SURFACE('',#1436,19.);
#1265=CYLINDRICAL_SURFACE('',#1441,19.);
#1266=ADVANCED_FACE('',(#86),#1251,.F.);
#1267=ADVANCED_FACE('',(#87),#1252,.F.);
#1268=ADVANCED_FACE('',(#88),#1253,.F.);
#1269=ADVANCED_FACE('',(#89),#1254,.F.);
#1270=ADVANCED_FACE('',(#90),#1255,.F.);
#1271=ADVANCED_FACE('',(#91),#34,.F.);
#1272=ADVANCED_FACE('',(#92),#1256,.F.);
#1273=ADVANCED_FACE('',(#93),#35,.F.);
#1274=ADVANCED_FACE('',(#94),#36,.F.);
#1275=ADVANCED_FACE('',(#95),#1257,.F.);
#1276=ADVANCED_FACE('',(#96),#37,.F.);
#1277=ADVANCED_FACE('',(#97),#1258,.F.);
#1278=ADVANCED_FACE('',(#98),#38,.F.);
#1279=ADVANCED_FACE('',(#99),#39,.F.);
#1280=ADVANCED_FACE('',(#100),#40,.F.);
#1281=ADVANCED_FACE('',(#101),#41,.F.);
#1282=ADVANCED_FACE('',(#102,#15,#16),#42,.F.);
#1283=ADVANCED_FACE('',(#103),#43,.T.);
#1284=ADVANCED_FACE('',(#104,#17),#44,.T.);
#1285=ADVANCED_FACE('',(#105),#45,.T.);
#1286=ADVANCED_FACE('',(#106,#18,#19),#46,.T.);
#1287=ADVANCED_FACE('',(#107),#47,.T.);
#1288=ADVANCED_FACE('',(#108),#1259,.F.);
#1289=ADVANCED_FACE('',(#109),#48,.F.);
#1290=ADVANCED_FACE('',(#110),#1260,.F.);
#1291=ADVANCED_FACE('',(#111),#49,.F.);
#1292=ADVANCED_FACE('',(#112),#1261,.F.);
#1293=ADVANCED_FACE('',(#113),#50,.F.);
#1294=ADVANCED_FACE('',(#114),#1262,.F.);
#1295=ADVANCED_FACE('',(#115),#51,.F.);
#1296=ADVANCED_FACE('',(#116),#52,.F.);
#1297=ADVANCED_FACE('',(#117),#53,.F.);
#1298=ADVANCED_FACE('',(#118),#54,.F.);
#1299=ADVANCED_FACE('',(#119,#20,#21),#55,.F.);
#1300=ADVANCED_FACE('',(#120),#56,.T.);
#1301=ADVANCED_FACE('',(#121),#57,.T.);
#1302=ADVANCED_FACE('',(#122,#22,#23),#58,.T.);
#1303=ADVANCED_FACE('',(#123),#59,.T.);
#1304=ADVANCED_FACE('',(#124),#60,.T.);
#1305=ADVANCED_FACE('',(#125),#61,.T.);
#1306=ADVANCED_FACE('',(#126),#62,.T.);
#1307=ADVANCED_FACE('',(#127),#63,.F.);
#1308=ADVANCED_FACE('',(#128),#64,.T.);
#1309=ADVANCED_FACE('',(#129),#65,.T.);
#1310=ADVANCED_FACE('',(#130),#66,.T.);
#1311=ADVANCED_FACE('',(#131),#67,.T.);
#1312=ADVANCED_FACE('',(#132,#24,#25,#26,#27),#68,.T.);
#1313=ADVANCED_FACE('',(#133),#69,.T.);
#1314=ADVANCED_FACE('',(#134),#70,.T.);
#1315=ADVANCED_FACE('',(#135),#71,.T.);
#1316=ADVANCED_FACE('',(#136),#72,.T.);
#1317=ADVANCED_FACE('',(#137),#73,.T.);
#1318=ADVANCED_FACE('',(#138),#74,.T.);
#1319=ADVANCED_FACE('',(#139),#75,.T.);
#1320=ADVANCED_FACE('',(#140),#76,.T.);
#1321=ADVANCED_FACE('',(#141,#28),#77,.T.);
#1322=ADVANCED_FACE('',(#142),#78,.T.);
#1323=ADVANCED_FACE('',(#143),#1263,.T.);
#1324=ADVANCED_FACE('',(#144),#79,.T.);
#1325=ADVANCED_FACE('',(#145,#29),#80,.T.);
#1326=ADVANCED_FACE('',(#146),#81,.T.);
#1327=ADVANCED_FACE('',(#147),#1264,.T.);
#1328=ADVANCED_FACE('',(#148),#82,.T.);
#1329=ADVANCED_FACE('',(#149),#83,.T.);
#1330=ADVANCED_FACE('',(#150),#84,.T.);
#1331=ADVANCED_FACE('',(#151),#1265,.T.);
#1332=ADVANCED_FACE('',(#152,#30,#31,#32,#33),#85,.F.);
#1333=CLOSED_SHELL('',(#1266,#1267,#1268,#1269,#1270,#1271,#1272,#1273,
#1274,#1275,#1276,#1277,#1278,#1279,#1280,#1281,#1282,#1283,#1284,#1285,
#1286,#1287,#1288,#1289,#1290,#1291,#1292,#1293,#1294,#1295,#1296,#1297,
#1298,#1299,#1300,#1301,#1302,#1303,#1304,#1305,#1306,#1307,#1308,#1309,
#1310,#1311,#1312,#1313,#1314,#1315,#1316,#1317,#1318,#1319,#1320,#1321,
#1322,#1323,#1324,#1325,#1326,#1327,#1328,#1329,#1330,#1331,#1332));
#1334=DERIVED_UNIT_ELEMENT(#1336,1.);
#1335=DERIVED_UNIT_ELEMENT(#2173,-3.);
#1336=(
MASS_UNIT()
NAMED_UNIT(*)
SI_UNIT(.KILO.,.GRAM.)
);
#1337=DERIVED_UNIT((#1334,#1335));
#1338=MEASURE_REPRESENTATION_ITEM('density measure',
POSITIVE_RATIO_MEASURE(7850.),#1337);
#1339=PROPERTY_DEFINITION_REPRESENTATION(#1344,#1341);
#1340=PROPERTY_DEFINITION_REPRESENTATION(#1345,#1342);
#1341=REPRESENTATION('material name',(#1343),#2170);
#1342=REPRESENTATION('density',(#1338),#2170);
#1343=DESCRIPTIVE_REPRESENTATION_ITEM('Steel','Steel');
#1344=PROPERTY_DEFINITION('material property','material name',#2180);
#1345=PROPERTY_DEFINITION('material property','density of part',#2180);
#1346=AXIS2_PLACEMENT_3D('',#1794,#1444,#1445);
#1347=AXIS2_PLACEMENT_3D('',#1795,#1446,#1447);
#1348=AXIS2_PLACEMENT_3D('',#1797,#1448,#1449);
#1349=AXIS2_PLACEMENT_3D('',#1800,#1451,#1452);
#1350=AXIS2_PLACEMENT_3D('',#1801,#1453,#1454);
#1351=AXIS2_PLACEMENT_3D('',#1803,#1455,#1456);
#1352=AXIS2_PLACEMENT_3D('',#1806,#1458,#1459);
#1353=AXIS2_PLACEMENT_3D('',#1807,#1460,#1461);
#1354=AXIS2_PLACEMENT_3D('',#1809,#1462,#1463);
#1355=AXIS2_PLACEMENT_3D('',#1812,#1465,#1466);
#1356=AXIS2_PLACEMENT_3D('',#1813,#1467,#1468);
#1357=AXIS2_PLACEMENT_3D('',#1815,#1469,#1470);
#1358=AXIS2_PLACEMENT_3D('',#1818,#1472,#1473);
#1359=AXIS2_PLACEMENT_3D('',#1819,#1474,#1475);
#1360=AXIS2_PLACEMENT_3D('',#1822,#1476,#1477);
#1361=AXIS2_PLACEMENT_3D('',#1826,#1479,#1480);
#1362=AXIS2_PLACEMENT_3D('',#1828,#1482,#1483);
#1363=AXIS2_PLACEMENT_3D('',#1834,#1487,#1488);
#1364=AXIS2_PLACEMENT_3D('',#1836,#1489,#1490);
#1365=AXIS2_PLACEMENT_3D('',#1838,#1491,#1492);
#1366=AXIS2_PLACEMENT_3D('',#1840,#1494,#1495);
#1367=AXIS2_PLACEMENT_3D('',#1843,#1498,#1499);
#1368=AXIS2_PLACEMENT_3D('',#1852,#1504,#1505);
#1369=AXIS2_PLACEMENT_3D('',#1854,#1506,#1507);
#1370=AXIS2_PLACEMENT_3D('',#1856,#1508,#1509);
#1371=AXIS2_PLACEMENT_3D('',#1858,#1511,#1512);
#1372=AXIS2_PLACEMENT_3D('',#1864,#1516,#1517);
#1373=AXIS2_PLACEMENT_3D('',#1865,#1518,#1519);
#1374=AXIS2_PLACEMENT_3D('',#1866,#1520,#1521);
#1375=AXIS2_PLACEMENT_3D('',#1867,#1522,#1523);
#1376=AXIS2_PLACEMENT_3D('',#1876,#1528,#1529);
#1377=AXIS2_PLACEMENT_3D('',#1882,#1533,#1534);
#1378=AXIS2_PLACEMENT_3D('',#1888,#1538,#1539);
#1379=AXIS2_PLACEMENT_3D('',#1891,#1542,#1543);
#1380=AXIS2_PLACEMENT_3D('',#1892,#1544,#1545);
#1381=AXIS2_PLACEMENT_3D('',#1901,#1550,#1551);
#1382=AXIS2_PLACEMENT_3D('',#1907,#1555,#1556);
#1383=AXIS2_PLACEMENT_3D('',#1913,#1560,#1561);
#1384=AXIS2_PLACEMENT_3D('',#1916,#1564,#1565);
#1385=AXIS2_PLACEMENT_3D('',#1917,#1566,#1567);
#1386=AXIS2_PLACEMENT_3D('',#1920,#1568,#1569);
#1387=AXIS2_PLACEMENT_3D('',#1924,#1571,#1572);
#1388=AXIS2_PLACEMENT_3D('',#1926,#1574,#1575);
#1389=AXIS2_PLACEMENT_3D('',#1932,#1579,#1580);
#1390=AXIS2_PLACEMENT_3D('',#1934,#1581,#1582);
#1391=AXIS2_PLACEMENT_3D('',#1936,#1583,#1584);
#1392=AXIS2_PLACEMENT_3D('',#1938,#1586,#1587);
#1393=AXIS2_PLACEMENT_3D('',#1941,#1590,#1591);
#1394=AXIS2_PLACEMENT_3D('',#1944,#1592,#1593);
#1395=AXIS2_PLACEMENT_3D('',#1948,#1595,#1596);
#1396=AXIS2_PLACEMENT_3D('',#1950,#1598,#1599);
#1397=AXIS2_PLACEMENT_3D('',#1956,#1603,#1604);
#1398=AXIS2_PLACEMENT_3D('',#1958,#1605,#1606);
#1399=AXIS2_PLACEMENT_3D('',#1960,#1607,#1608);
#1400=AXIS2_PLACEMENT_3D('',#1962,#1610,#1611);
#1401=AXIS2_PLACEMENT_3D('',#1965,#1614,#1615);
#1402=AXIS2_PLACEMENT_3D('',#1974,#1620,#1621);
#1403=AXIS2_PLACEMENT_3D('',#1980,#1625,#1626);
#1404=AXIS2_PLACEMENT_3D('',#1986,#1630,#1631);
#1405=AXIS2_PLACEMENT_3D('',#1988,#1633,#1634);
#1406=AXIS2_PLACEMENT_3D('',#1998,#1640,#1641);
#1407=AXIS2_PLACEMENT_3D('',#2004,#1645,#1646);
#1408=AXIS2_PLACEMENT_3D('',#2010,#1650,#1651);
#1409=AXIS2_PLACEMENT_3D('',#2013,#1654,#1655);
#1410=AXIS2_PLACEMENT_3D('',#2014,#1656,#1657);
#1411=AXIS2_PLACEMENT_3D('',#2023,#1662,#1663);
#1412=AXIS2_PLACEMENT_3D('',#2033,#1669,#1670);
#1413=AXIS2_PLACEMENT_3D('',#2045,#1677,#1678);
#1414=AXIS2_PLACEMENT_3D('',#2054,#1683,#1684);
#1415=AXIS2_PLACEMENT_3D('',#2059,#1688,#1689);
#1416=AXIS2_PLACEMENT_3D('',#2063,#1692,#1693);
#1417=AXIS2_PLACEMENT_3D('',#2069,#1697,#1698);
#1418=AXIS2_PLACEMENT_3D('',#2076,#1702,#1703);
#1419=AXIS2_PLACEMENT_3D('',#2084,#1707,#1708);
#1420=AXIS2_PLACEMENT_3D('',#2092,#1712,#1713);
#1421=AXIS2_PLACEMENT_3D('',#2094,#1715,#1716);
#1422=AXIS2_PLACEMENT_3D('',#2100,#1720,#1721);
#1423=AXIS2_PLACEMENT_3D('',#2104,#1724,#1725);
#1424=AXIS2_PLACEMENT_3D('',#2108,#1728,#1729);
#1425=AXIS2_PLACEMENT_3D('',#2114,#1733,#1734);
#1426=AXIS2_PLACEMENT_3D('',#2116,#1736,#1737);
#1427=AXIS2_PLACEMENT_3D('',#2118,#1739,#1740);
#1428=AXIS2_PLACEMENT_3D('',#2119,#1741,#1742);
#1429=AXIS2_PLACEMENT_3D('',#2125,#1746,#1747);
#1430=AXIS2_PLACEMENT_3D('',#2129,#1750,#1751);
#1431=AXIS2_PLACEMENT_3D('',#2133,#1754,#1755);
#1432=AXIS2_PLACEMENT_3D('',#2135,#1756,#1757);
#1433=AXIS2_PLACEMENT_3D('',#2137,#1759,#1760);
#1434=AXIS2_PLACEMENT_3D('',#2141,#1763,#1764);
#1435=AXIS2_PLACEMENT_3D('',#2145,#1767,#1768);
#1436=AXIS2_PLACEMENT_3D('',#2149,#1771,#1772);
#1437=AXIS2_PLACEMENT_3D('',#2151,#1773,#1774);
#1438=AXIS2_PLACEMENT_3D('',#2153,#1776,#1777);
#1439=AXIS2_PLACEMENT_3D('',#2157,#1780,#1781);
#1440=AXIS2_PLACEMENT_3D('',#2161,#1784,#1785);
#1441=AXIS2_PLACEMENT_3D('',#2165,#1788,#1789);
#1442=AXIS2_PLACEMENT_3D('',#2166,#1790,#1791);
#1443=AXIS2_PLACEMENT_3D('',#2167,#1792,#1793);
#1444=DIRECTION('axis',(0.,0.,1.));
#1445=DIRECTION('refdir',(1.,0.,0.));
#1446=DIRECTION('center_axis',(0.,-1.,0.));
#1447=DIRECTION('ref_axis',(-1.,0.,0.));
#1448=DIRECTION('center_axis',(0.,-1.,0.));
#1449=DIRECTION('ref_axis',(-1.,0.,0.));
#1450=DIRECTION('',(0.,-1.,0.));
#1451=DIRECTION('center_axis',(0.,1.,0.));
#1452=DIRECTION('ref_axis',(-1.,0.,0.));
#1453=DIRECTION('center_axis',(0.,-1.,0.));
#1454=DIRECTION('ref_axis',(-1.,0.,0.));
#1455=DIRECTION('center_axis',(0.,-1.,0.));
#1456=DIRECTION('ref_axis',(-1.,0.,0.));
#1457=DIRECTION('',(0.,-1.,0.));
#1458=DIRECTION('center_axis',(0.,1.,0.));
#1459=DIRECTION('ref_axis',(-1.,0.,0.));
#1460=DIRECTION('center_axis',(0.,-1.,0.));
#1461=DIRECTION('ref_axis',(-1.,0.,0.));
#1462=DIRECTION('center_axis',(0.,-1.,0.));
#1463=DIRECTION('ref_axis',(-1.,0.,0.));
#1464=DIRECTION('',(0.,-1.,0.));
#1465=DIRECTION('center_axis',(0.,1.,0.));
#1466=DIRECTION('ref_axis',(-1.,0.,0.));
#1467=DIRECTION('center_axis',(0.,-1.,0.));
#1468=DIRECTION('ref_axis',(-1.,0.,0.));
#1469=DIRECTION('center_axis',(0.,-1.,0.));
#1470=DIRECTION('ref_axis',(-1.,0.,0.));
#1471=DIRECTION('',(0.,-1.,0.));
#1472=DIRECTION('center_axis',(0.,1.,0.));
#1473=DIRECTION('ref_axis',(-1.,0.,0.));
#1474=DIRECTION('center_axis',(0.,-1.,0.));
#1475=DIRECTION('ref_axis',(0.999999999999929,0.,3.75735441748499E-7));
#1476=DIRECTION('center_axis',(0.,1.,0.));
#1477=DIRECTION('ref_axis',(-1.,0.,0.));
#1478=DIRECTION('',(0.,-1.,0.));
#1479=DIRECTION('center_axis',(0.,-1.,0.));
#1480=DIRECTION('ref_axis',(-1.,0.,0.));
#1481=DIRECTION('',(0.,-1.,0.));
#1482=DIRECTION('center_axis',(1.0540092005935E-15,0.,-1.));
#1483=DIRECTION('ref_axis',(1.,0.,1.0540092005935E-15));
#1484=DIRECTION('',(-1.,0.,-1.0540092005935E-15));
#1485=DIRECTION('',(1.,0.,1.0540092005935E-15));
#1486=DIRECTION('',(0.,-1.,0.));
#1487=DIRECTION('center_axis',(0.,-1.,0.));
#1488=DIRECTION('ref_axis',(-1.,0.,0.));
#1489=DIRECTION('center_axis',(0.,1.,0.));
#1490=DIRECTION('ref_axis',(-1.,0.,0.));
#1491=DIRECTION('center_axis',(0.,-1.,0.));
#1492=DIRECTION('ref_axis',(-1.,0.,0.));
#1493=DIRECTION('',(0.,-1.,0.));
#1494=DIRECTION('center_axis',(-7.51470878444134E-7,0.,0.999999999999718));
#1495=DIRECTION('ref_axis',(-0.999999999999718,0.,-7.51470878444134E-7));
#1496=DIRECTION('',(0.999999999999718,0.,7.51470878444134E-7));
#1497=DIRECTION('',(-0.999999999999718,0.,-7.51470878444134E-7));
#1498=DIRECTION('center_axis',(1.91296863874811E-6,0.,0.99999999999817));
#1499=DIRECTION('ref_axis',(-0.99999999999817,0.,1.91296863874811E-6));
#1500=DIRECTION('',(0.99999999999817,0.,-1.91296863874811E-6));
#1501=DIRECTION('',(0.,-1.,0.));
#1502=DIRECTION('',(-0.99999999999817,0.,1.91296863874811E-6));
#1503=DIRECTION('',(0.,-1.,0.));
#1504=DIRECTION('center_axis',(0.,-1.,0.));
#1505=DIRECTION('ref_axis',(0.999999052455313,0.,-0.00137662212558802));
#1506=DIRECTION('center_axis',(0.,1.,0.));
#1507=DIRECTION('ref_axis',(-1.,0.,0.));
#1508=DIRECTION('center_axis',(0.,-1.,0.));
#1509=DIRECTION('ref_axis',(-1.,0.,0.));
#1510=DIRECTION('',(0.,-1.,0.));
#1511=DIRECTION('center_axis',(1.91296863909867E-6,0.,-0.99999999999817));
#1512=DIRECTION('ref_axis',(0.99999999999817,0.,1.91296863909867E-6));
#1513=DIRECTION('',(-0.99999999999817,0.,-1.91296863909867E-6));
#1514=DIRECTION('',(0.99999999999817,0.,1.91296863909867E-6));
#1515=DIRECTION('',(0.,-1.,0.));
#1516=DIRECTION('center_axis',(0.,-1.,0.));
#1517=DIRECTION('ref_axis',(-1.,0.,0.));
#1518=DIRECTION('center_axis',(0.,1.,0.));
#1519=DIRECTION('ref_axis',(-1.,0.,0.));
#1520=DIRECTION('center_axis',(0.,-1.,0.));
#1521=DIRECTION('ref_axis',(-1.,0.,0.));
#1522=DIRECTION('center_axis',(7.22096276178963E-16,0.,-1.));
#1523=DIRECTION('ref_axis',(1.,0.,7.22096276178963E-16));
#1524=DIRECTION('',(1.,0.,7.22096276178963E-16));
#1525=DIRECTION('',(0.,-1.,0.));
#1526=DIRECTION('',(1.,0.,7.22096276178963E-16));
#1527=DIRECTION('',(0.,-1.,0.));
#1528=DIRECTION('center_axis',(-1.,0.,-6.53072367426562E-16));
#1529=DIRECTION('ref_axis',(6.53072367426562E-16,0.,-1.));
#1530=DIRECTION('',(6.53072367426562E-16,0.,-1.));
#1531=DIRECTION('',(0.,-1.,0.));
#1532=DIRECTION('',(6.53072367426562E-16,0.,-1.));
#1533=DIRECTION('center_axis',(0.,0.,1.));
#1534=DIRECTION('ref_axis',(-1.,0.,0.));
#1535=DIRECTION('',(-1.,0.,0.));
#1536=DIRECTION('',(0.,-1.,0.));
#1537=DIRECTION('',(-1.,0.,0.));
#1538=DIRECTION('center_axis',(1.,0.,6.53072367426563E-16));
#1539=DIRECTION('ref_axis',(-6.53072367426563E-16,0.,1.));
#1540=DIRECTION('',(-6.53072367426563E-16,0.,1.));
#1541=DIRECTION('',(-6.53072367426563E-16,0.,1.));
#1542=DIRECTION('center_axis',(0.,-1.,0.));
#1543=DIRECTION('ref_axis',(0.,0.,-1.));
#1544=DIRECTION('center_axis',(0.,0.,1.));
#1545=DIRECTION('ref_axis',(0.,-1.,0.));
#1546=DIRECTION('',(0.,1.,0.));
#1547=DIRECTION('',(1.,0.,0.));
#1548=DIRECTION('',(0.,-1.,0.));
#1549=DIRECTION('',(1.,0.,0.));
#1550=DIRECTION('center_axis',(0.,1.,0.));
#1551=DIRECTION('ref_axis',(0.,0.,1.));
#1552=DIRECTION('',(-6.76575881447547E-17,0.,-1.));
#1553=DIRECTION('',(0.,0.,1.));
#1554=DIRECTION('',(1.,0.,0.));
#1555=DIRECTION('center_axis',(0.,0.,-1.));
#1556=DIRECTION('ref_axis',(0.,1.,0.));
#1557=DIRECTION('',(0.,-1.,0.));
#1558=DIRECTION('',(0.,1.,0.));
#1559=DIRECTION('',(1.,0.,0.));
#1560=DIRECTION('center_axis',(0.,-1.,0.));
#1561=DIRECTION('ref_axis',(0.,0.,-1.));
#1562=DIRECTION('',(6.76575881447547E-17,0.,1.));
#1563=DIRECTION('',(0.,0.,-1.));
#1564=DIRECTION('center_axis',(1.,0.,0.));
#1565=DIRECTION('ref_axis',(0.,0.,-1.));
#1566=DIRECTION('center_axis',(0.,-1.,0.));
#1567=DIRECTION('ref_axis',(-1.,0.,0.));
#1568=DIRECTION('center_axis',(0.,1.,0.));
#1569=DIRECTION('ref_axis',(-1.,0.,0.));
#1570=DIRECTION('',(0.,-1.,0.));
#1571=DIRECTION('center_axis',(0.,-1.,0.));
#1572=DIRECTION('ref_axis',(-1.,0.,0.));
#1573=DIRECTION('',(0.,-1.,0.));
#1574=DIRECTION('center_axis',(1.,0.,-2.52323414687536E-16));
#1575=DIRECTION('ref_axis',(2.52323414687536E-16,0.,1.));
#1576=DIRECTION('',(-2.52323414687536E-16,0.,-1.));
#1577=DIRECTION('',(2.52323414687536E-16,0.,1.));
#1578=DIRECTION('',(0.,-1.,0.));
#1579=DIRECTION('center_axis',(0.,-1.,0.));
#1580=DIRECTION('ref_axis',(-1.,0.,0.));
#1581=DIRECTION('center_axis',(0.,1.,0.));
#1582=DIRECTION('ref_axis',(-1.,0.,0.));
#1583=DIRECTION('center_axis',(0.,-1.,0.));
#1584=DIRECTION('ref_axis',(-1.,0.,0.));
#1585=DIRECTION('',(0.,-1.,0.));
#1586=DIRECTION('center_axis',(-0.99999999998765,0.,4.96996187859734E-6));
#1587=DIRECTION('ref_axis',(-4.96996187859734E-6,0.,-0.99999999998765));
#1588=DIRECTION('',(4.96996187859734E-6,0.,0.99999999998765));
#1589=DIRECTION('',(-4.96996187859734E-6,0.,-0.99999999998765));
#1590=DIRECTION('center_axis',(0.,-1.,0.));
#1591=DIRECTION('ref_axis',(-1.,0.,0.));
#1592=DIRECTION('center_axis',(0.,1.,0.));
#1593=DIRECTION('ref_axis',(-1.,0.,0.));
#1594=DIRECTION('',(0.,-1.,0.));
#1595=DIRECTION('center_axis',(0.,-1.,0.));
#1596=DIRECTION('ref_axis',(-1.,0.,0.));
#1597=DIRECTION('',(0.,-1.,0.));
#1598=DIRECTION('center_axis',(1.,0.,0.));
#1599=DIRECTION('ref_axis',(0.,0.,1.));
#1600=DIRECTION('',(0.,0.,-1.));
#1601=DIRECTION('',(0.,0.,1.));
#1602=DIRECTION('',(0.,-1.,0.));
#1603=DIRECTION('center_axis',(0.,-1.,0.));
#1604=DIRECTION('ref_axis',(-1.,0.,0.));
#1605=DIRECTION('center_axis',(0.,1.,0.));
#1606=DIRECTION('ref_axis',(-1.,0.,0.));
#1607=DIRECTION('center_axis',(0.,-1.,0.));
#1608=DIRECTION('ref_axis',(-1.,0.,0.));
#1609=DIRECTION('',(0.,-1.,0.));
#1610=DIRECTION('center_axis',(-0.999999962425498,0.,-0.000274133185719501));
#1611=DIRECTION('ref_axis',(0.000274133185719501,0.,-0.999999962425498));
#1612=DIRECTION('',(-0.000274133185719501,0.,0.999999962425498));
#1613=DIRECTION('',(0.000274133185719501,0.,-0.999999962425498));
#1614=DIRECTION('center_axis',(0.,0.,-1.));
#1615=DIRECTION('ref_axis',(1.,0.,0.));
#1616=DIRECTION('',(1.,0.,0.));
#1617=DIRECTION('',(0.,-1.,0.));
#1618=DIRECTION('',(1.,0.,0.));
#1619=DIRECTION('',(0.,-1.,0.));
#1620=DIRECTION('center_axis',(-1.,0.,0.));
#1621=DIRECTION('ref_axis',(0.,0.,-1.));
#1622=DIRECTION('',(0.,0.,-1.));
#1623=DIRECTION('',(0.,-1.,0.));
#1624=DIRECTION('',(0.,0.,-1.));
#1625=DIRECTION('center_axis',(0.,0.,1.));
#1626=DIRECTION('ref_axis',(-1.,0.,0.));
#1627=DIRECTION('',(-1.,0.,0.));
#1628=DIRECTION('',(0.,-1.,0.));
#1629=DIRECTION('',(-1.,0.,0.));
#1630=DIRECTION('center_axis',(0.,-1.,0.));
#1631=DIRECTION('ref_axis',(0.,0.,-1.));
#1632=DIRECTION('',(0.,0.,1.));
#1633=DIRECTION('center_axis',(0.,1.,0.));
#1634=DIRECTION('ref_axis',(0.,0.,-1.));
#1635=DIRECTION('',(0.,0.,1.));
#1636=DIRECTION('',(-1.,0.,0.));
#1637=DIRECTION('',(0.,0.,-1.));
#1638=DIRECTION('',(-1.,0.,0.));
#1639=DIRECTION('',(0.,0.,1.));
#1640=DIRECTION('center_axis',(0.,0.,1.));
#1641=DIRECTION('ref_axis',(0.,1.,0.));
#1642=DIRECTION('',(0.,-1.,0.));
#1643=DIRECTION('',(0.,1.,0.));
#1644=DIRECTION('',(-1.,0.,0.));
#1645=DIRECTION('center_axis',(0.,-1.,0.));
#1646=DIRECTION('ref_axis',(0.,0.,1.));
#1647=DIRECTION('',(0.,0.,-1.));
#1648=DIRECTION('',(0.,0.,1.));
#1649=DIRECTION('',(-1.,0.,0.));
#1650=DIRECTION('center_axis',(0.,0.,-1.));
#1651=DIRECTION('ref_axis',(0.,-1.,0.));
#1652=DIRECTION('',(0.,1.,0.));
#1653=DIRECTION('',(0.,-1.,0.));
#1654=DIRECTION('center_axis',(-1.,0.,0.));
#1655=DIRECTION('ref_axis',(0.,0.,1.));
#1656=DIRECTION('center_axis',(1.66532941030772E-16,-1.,-4.1322005969837E-19));
#1657=DIRECTION('ref_axis',(0.999996921561461,1.66533453693774E-16,-0.00248130360917287));
#1658=DIRECTION('',(-0.999996921561461,-1.66533453693774E-16,0.00248130360917287));
#1659=DIRECTION('',(-0.00248130360917279,9.62964972193618E-35,-0.999996921561461));
#1660=DIRECTION('',(0.999996921561461,1.66533453693773E-16,-0.00248130360917287));
#1661=DIRECTION('',(0.00248130360917279,1.92592994438724E-34,0.999996921561461));
#1662=DIRECTION('center_axis',(0.00248130360917279,0.,0.999996921561461));
#1663=DIRECTION('ref_axis',(0.999996921561461,0.,-0.00248130360917279));
#1664=DIRECTION('',(0.,-1.,0.));
#1665=DIRECTION('',(-0.999996921561461,0.,0.00248130360917287));
#1666=DIRECTION('',(0.999996921561461,0.,-0.00248130360917279));
#1667=DIRECTION('',(-0.999996921561461,0.,0.00248130360917287));
#1668=DIRECTION('',(0.,1.,0.));
#1669=DIRECTION('center_axis',(0.,1.,0.));
#1670=DIRECTION('ref_axis',(-1.,0.,0.));
#1671=DIRECTION('',(5.75364336974065E-17,0.,1.));
#1672=DIRECTION('',(-1.,0.,2.01858731750028E-15));
#1673=DIRECTION('',(0.,0.,-1.));
#1674=DIRECTION('',(1.,0.,0.));
#1675=DIRECTION('',(0.,0.,-1.));
#1676=DIRECTION('',(1.,0.,0.));
#1677=DIRECTION('center_axis',(-1.,0.,-9.58940561623442E-17));
#1678=DIRECTION('ref_axis',(-9.58940561623442E-17,0.,1.));
#1679=DIRECTION('',(-9.58940561623442E-17,0.,1.));
#1680=DIRECTION('',(0.,1.,0.));
#1681=DIRECTION('',(-9.58940561623442E-17,0.,1.));
#1682=DIRECTION('',(0.,1.,0.));
#1683=DIRECTION('center_axis',(0.,0.,1.));
#1684=DIRECTION('ref_axis',(1.,0.,0.));
#1685=DIRECTION('',(1.,0.,0.));
#1686=DIRECTION('',(0.,-1.,0.));
#1687=DIRECTION('',(1.,0.,0.));
#1688=DIRECTION('center_axis',(0.,1.,0.));
#1689=DIRECTION('ref_axis',(0.,0.,1.));
#1690=DIRECTION('',(0.,0.,1.));
#1691=DIRECTION('',(-1.,0.,0.));
#1692=DIRECTION('center_axis',(-1.,0.,0.));
#1693=DIRECTION('ref_axis',(0.,0.,1.));
#1694=DIRECTION('',(0.,1.,0.));
#1695=DIRECTION('',(0.,0.,1.));
#1696=DIRECTION('',(0.,1.,0.));
#1697=DIRECTION('center_axis',(0.,1.,0.));
#1698=DIRECTION('ref_axis',(1.,0.,0.));
#1699=DIRECTION('',(1.,0.,0.));
#1700=DIRECTION('',(5.75364336974065E-17,0.,1.));
#1701=DIRECTION('',(0.00248130360917279,0.,0.999996921561461));
#1702=DIRECTION('center_axis',(0.,1.,0.));
#1703=DIRECTION('ref_axis',(1.,0.,0.));
#1704=DIRECTION('',(-0.999996921561461,0.,0.00248130360917276));
#1705=DIRECTION('',(-6.76575881447547E-17,0.,-1.));
#1706=DIRECTION('',(1.,0.,0.));
#1707=DIRECTION('center_axis',(0.,1.,0.));
#1708=DIRECTION('ref_axis',(1.,0.,0.));
#1709=DIRECTION('',(1.,0.,0.));
#1710=DIRECTION('',(0.,0.,1.));
#1711=DIRECTION('',(-1.,0.,0.));
#1712=DIRECTION('center_axis',(0.,1.,0.));
#1713=DIRECTION('ref_axis',(1.,0.,0.));
#1714=DIRECTION('',(-0.00248130360917279,0.,-0.999996921561461));
#1715=DIRECTION('center_axis',(1.,0.,-5.75364336974065E-17));
#1716=DIRECTION('ref_axis',(-5.75364336974065E-17,0.,-1.));
#1717=DIRECTION('',(0.,1.,0.));
#1718=DIRECTION('',(-5.75364336974065E-17,0.,-1.));
#1719=DIRECTION('',(0.,1.,0.));
#1720=DIRECTION('center_axis',(2.01858731750028E-15,0.,1.));
#1721=DIRECTION('ref_axis',(1.,0.,-2.01858731750028E-15));
#1722=DIRECTION('',(1.,0.,-2.01858731750028E-15));
#1723=DIRECTION('',(0.,1.,0.));
#1724=DIRECTION('center_axis',(0.,1.,0.));
#1725=DIRECTION('ref_axis',(0.,0.,1.));
#1726=DIRECTION('',(-1.,0.,-2.01858731750029E-15));
#1727=DIRECTION('',(0.,0.,-1.));
#1728=DIRECTION('center_axis',(1.,0.,0.));
#1729=DIRECTION('ref_axis',(0.,0.,-1.));
#1730=DIRECTION('',(0.,1.,0.));
#1731=DIRECTION('',(0.,0.,-1.));
#1732=DIRECTION('',(0.,1.,0.));
#1733=DIRECTION('center_axis',(-2.22044604925031E-15,0.,-1.));
#1734=DIRECTION('ref_axis',(-1.,0.,2.22044604925031E-15));
#1735=DIRECTION('',(-1.,0.,2.22044604925031E-15));
#1736=DIRECTION('center_axis',(0.,0.,1.));
#1737=DIRECTION('ref_axis',(1.,0.,0.));
#1738=DIRECTION('',(1.,0.,0.));
#1739=DIRECTION('center_axis',(0.,1.,0.));
#1740=DIRECTION('ref_axis',(0.,0.,1.));
#1741=DIRECTION('center_axis',(0.,0.,-1.));
#1742=DIRECTION('ref_axis',(-1.,0.,0.));
#1743=DIRECTION('',(-1.,0.,0.));
#1744=DIRECTION('',(0.,1.,0.));
#1745=DIRECTION('',(0.,1.,0.));
#1746=DIRECTION('center_axis',(-1.,0.,0.));
#1747=DIRECTION('ref_axis',(0.,0.,1.));
#1748=DIRECTION('',(0.,0.,-1.));
#1749=DIRECTION('',(0.,1.,0.));
#1750=DIRECTION('center_axis',(0.,0.,1.));
#1751=DIRECTION('ref_axis',(1.,0.,0.));
#1752=DIRECTION('',(-1.,0.,0.));
#1753=DIRECTION('',(0.,1.,0.));
#1754=DIRECTION('center_axis',(0.,1.,0.));
#1755=DIRECTION('ref_axis',(1.,0.,0.));
#1756=DIRECTION('center_axis',(0.,1.,0.));
#1757=DIRECTION('ref_axis',(1.,0.,0.));
#1758=DIRECTION('',(0.,1.,0.));
#1759=DIRECTION('center_axis',(0.,0.,1.));
#1760=DIRECTION('ref_axis',(1.,0.,0.));
#1761=DIRECTION('',(1.,0.,0.));
#1762=DIRECTION('',(0.,1.,0.));
#1763=DIRECTION('center_axis',(1.,0.,-6.76575881447547E-17));
#1764=DIRECTION('ref_axis',(-6.76575881447547E-17,0.,-1.));
#1765=DIRECTION('',(-6.76575881447547E-17,0.,-1.));
#1766=DIRECTION('',(0.,1.,0.));
#1767=DIRECTION('center_axis',(-0.00248130360917276,0.,-0.999996921561461));
#1768=DIRECTION('ref_axis',(-0.999996921561461,0.,0.00248130360917276));
#1769=DIRECTION('',(0.999996921561461,0.,-0.00248130360917276));
#1770=DIRECTION('',(0.,1.,0.));
#1771=DIRECTION('center_axis',(0.,1.,0.));
#1772=DIRECTION('ref_axis',(1.,0.,0.));
#1773=DIRECTION('center_axis',(0.,1.,0.));
#1774=DIRECTION('ref_axis',(1.,0.,0.));
#1775=DIRECTION('',(0.,1.,0.));
#1776=DIRECTION('center_axis',(-0.999996921561461,0.,0.00248130360917279));
#1777=DIRECTION('ref_axis',(0.00248130360917279,0.,0.999996921561461));
#1778=DIRECTION('',(0.,1.,0.));
#1779=DIRECTION('',(0.00248130360917279,0.,0.999996921561461));
#1780=DIRECTION('center_axis',(0.00248130360917287,0.,0.999996921561461));
#1781=DIRECTION('ref_axis',(0.999996921561461,0.,-0.00248130360917287));
#1782=DIRECTION('',(0.,1.,0.));
#1783=DIRECTION('',(0.999996921561461,0.,-0.00248130360917287));
#1784=DIRECTION('center_axis',(0.999996921561461,0.,-0.00248130360917279));
#1785=DIRECTION('ref_axis',(-0.00248130360917279,0.,-0.999996921561461));
#1786=DIRECTION('',(0.,1.,0.));
#1787=DIRECTION('',(0.00248130360917279,0.,0.999996921561461));
#1788=DIRECTION('center_axis',(0.,1.,0.));
#1789=DIRECTION('ref_axis',(1.,0.,0.));
#1790=DIRECTION('center_axis',(0.,1.,0.));
#1791=DIRECTION('ref_axis',(1.,0.,0.));
#1792=DIRECTION('center_axis',(0.,1.,0.));
#1793=DIRECTION('ref_axis',(1.,0.,0.));
#1794=CARTESIAN_POINT('',(0.,0.,0.));
#1795=CARTESIAN_POINT('Origin',(-8.0046626037038,7.7,13.5402778232468));
#1796=CARTESIAN_POINT('',(-6.50466260370379,7.7,13.5402778232468));
#1797=CARTESIAN_POINT('Origin',(-8.0046626037038,7.7,13.5402778232468));
#1798=CARTESIAN_POINT('',(-6.50466260370379,0.,13.5402778232468));
#1799=CARTESIAN_POINT('',(-6.50466260370379,7.7,13.5402778232468));
#1800=CARTESIAN_POINT('Origin',(-8.0046626037038,0.,13.5402778232468));
#1801=CARTESIAN_POINT('Origin',(7.92811488605577,7.7,-13.5710994656908));
#1802=CARTESIAN_POINT('',(9.42811488605577,7.7,-13.5710994656908));
#1803=CARTESIAN_POINT('Origin',(7.92811488605577,7.7,-13.5710994656908));
#1804=CARTESIAN_POINT('',(9.42811488605577,0.,-13.5710994656908));
#1805=CARTESIAN_POINT('',(9.42811488605577,7.7,-13.5710994656908));
#1806=CARTESIAN_POINT('Origin',(7.92811488605577,0.,-13.5710994656908));
#1807=CARTESIAN_POINT('Origin',(7.99528814127958,7.7,13.5005769655));
#1808=CARTESIAN_POINT('',(9.49528814127958,7.7,13.5005769655));
#1809=CARTESIAN_POINT('Origin',(7.99528814127958,7.7,13.5005769655));
#1810=CARTESIAN_POINT('',(9.49528814127958,0.,13.5005769655));
#1811=CARTESIAN_POINT('',(9.49528814127958,7.7,13.5005769655));
#1812=CARTESIAN_POINT('Origin',(7.99528814127958,0.,13.5005769655));
#1813=CARTESIAN_POINT('Origin',(-8.07188511394423,7.7,-13.5710994656908));
#1814=CARTESIAN_POINT('',(-6.57188511394423,7.7,-13.5710994656908));
#1815=CARTESIAN_POINT('Origin',(-8.07188511394423,7.7,-13.5710994656908));
#1816=CARTESIAN_POINT('',(-6.57188511394423,0.,-13.5710994656908));
#1817=CARTESIAN_POINT('',(-6.57188511394423,7.7,-13.5710994656908));
#1818=CARTESIAN_POINT('Origin',(-8.07188511394423,0.,-13.5710994656908));
#1819=CARTESIAN_POINT('Origin',(10.9595024462834,4.35,2.33));
#1820=CARTESIAN_POINT('',(10.9595016948125,3.75,3.32999999999972));
#1821=CARTESIAN_POINT('',(10.9595024462834,3.75,1.33));
#1822=CARTESIAN_POINT('Origin',(10.9595024462834,3.75,2.33));
#1823=CARTESIAN_POINT('',(10.9595016948125,4.35,3.32999999999972));
#1824=CARTESIAN_POINT('',(10.9595016948125,4.35,3.32999999999972));
#1825=CARTESIAN_POINT('',(10.9595024462834,4.35,1.33));
#1826=CARTESIAN_POINT('Origin',(10.9595024462834,4.35,2.33));
#1827=CARTESIAN_POINT('',(10.9595024462834,4.35,1.33));
#1828=CARTESIAN_POINT('Origin',(10.1695024462834,4.35,1.33));
#1829=CARTESIAN_POINT('',(10.1695024462834,3.75,1.33));
#1830=CARTESIAN_POINT('',(6.86100122314168,3.75,1.33));
#1831=CARTESIAN_POINT('',(10.1695024462834,4.35,1.33));
#1832=CARTESIAN_POINT('',(9.53200122314168,4.35,1.33));
#1833=CARTESIAN_POINT('',(10.1695024462834,4.35,1.33));
#1834=CARTESIAN_POINT('Origin',(10.1695024462834,4.35,2.33));
#1835=CARTESIAN_POINT('',(10.1701308009693,3.75,3.32999940681048));
#1836=CARTESIAN_POINT('Origin',(10.1695024462834,3.75,2.33));
#1837=CARTESIAN_POINT('',(10.1701308009693,4.35,3.32999940681048));
#1838=CARTESIAN_POINT('Origin',(10.1695024462834,4.35,2.33));
#1839=CARTESIAN_POINT('',(10.1701308009693,4.35,3.32999940681048));
#1840=CARTESIAN_POINT('Origin',(10.9595016948125,4.35,3.32999999999972));
#1841=CARTESIAN_POINT('',(7.25600141101149,3.75,3.3299972169271));
#1842=CARTESIAN_POINT('',(9.9269997202005,4.35,3.32999922410455));
#1843=CARTESIAN_POINT('Origin',(7.62125386113253,4.35,3.3299984854062));
#1844=CARTESIAN_POINT('',(6.829504359252,3.75,3.32999999999817));
#1845=CARTESIAN_POINT('',(7.62125386113253,3.75,3.3299984854062));
#1846=CARTESIAN_POINT('',(5.58687549584578,3.75,3.33000237710821));
#1847=CARTESIAN_POINT('',(6.829504359252,4.35,3.32999999999817));
#1848=CARTESIAN_POINT('',(6.829504359252,4.35,3.32999999999817));
#1849=CARTESIAN_POINT('',(7.62125386113253,4.35,3.3299984854062));
#1850=CARTESIAN_POINT('',(8.25787980001544,4.35,3.32999726756075));
#1851=CARTESIAN_POINT('',(7.62125386113253,4.35,3.3299984854062));
#1852=CARTESIAN_POINT('Origin',(7.61950244628336,4.35,2.33));
#1853=CARTESIAN_POINT('',(7.61850061805056,3.75,1.33000150932693));
#1854=CARTESIAN_POINT('Origin',(7.61950244628336,3.75,2.33));
#1855=CARTESIAN_POINT('',(7.61850061805056,4.35,1.33000150932693));
#1856=CARTESIAN_POINT('Origin',(7.61950244628336,4.35,2.33));
#1857=CARTESIAN_POINT('',(7.61850061805056,4.35,1.33000150932693));
#1858=CARTESIAN_POINT('Origin',(6.829504359252,4.35,1.33000000000183));
#1859=CARTESIAN_POINT('',(6.829504359252,3.75,1.33000000000183));
#1860=CARTESIAN_POINT('',(5.19100552732711,3.75,1.32999686560495));
#1861=CARTESIAN_POINT('',(6.829504359252,4.35,1.33000000000183));
#1862=CARTESIAN_POINT('',(7.8620012231379,4.35,1.33000197513595));
#1863=CARTESIAN_POINT('',(6.829504359252,4.35,1.33000000000183));
#1864=CARTESIAN_POINT('Origin',(6.82950244628336,4.35,2.33));
#1865=CARTESIAN_POINT('Origin',(6.82950244628336,3.75,2.33));
#1866=CARTESIAN_POINT('Origin',(6.82950244628336,4.35,2.33));
#1867=CARTESIAN_POINT('Origin',(5.8195,6.45,-3.07));
#1868=CARTESIAN_POINT('',(5.8195,6.45,-3.07));
#1869=CARTESIAN_POINT('',(11.9695,6.45,-3.07));
#1870=CARTESIAN_POINT('',(4.686,6.45,-3.07000000000001));
#1871=CARTESIAN_POINT('',(5.8195,4.35,-3.07));
#1872=CARTESIAN_POINT('',(5.8195,6.45,-3.07));
#1873=CARTESIAN_POINT('',(11.9695,4.35,-3.07));
#1874=CARTESIAN_POINT('',(11.9695,4.35,-3.07));
#1875=CARTESIAN_POINT('',(11.9695,6.45,-3.07));
#1876=CARTESIAN_POINT('Origin',(5.8195,6.45,3.73));
#1877=CARTESIAN_POINT('',(5.8195,6.45,3.73));
#1878=CARTESIAN_POINT('',(5.8195,6.45,-0.219999999999999));
#1879=CARTESIAN_POINT('',(5.8195,4.35,3.73));
#1880=CARTESIAN_POINT('',(5.8195,6.45,3.73));
#1881=CARTESIAN_POINT('',(5.8195,4.35,-3.07));
#1882=CARTESIAN_POINT('Origin',(11.9695,6.45,3.73));
#1883=CARTESIAN_POINT('',(11.9695,6.45,3.73));
#1884=CARTESIAN_POINT('',(7.761,6.45,3.73));
#1885=CARTESIAN_POINT('',(11.9695,4.35,3.73));
#1886=CARTESIAN_POINT('',(11.9695,6.45,3.73));
#1887=CARTESIAN_POINT('',(11.9695,4.35,3.73));
#1888=CARTESIAN_POINT('Origin',(11.9695,6.45,-3.07));
#1889=CARTESIAN_POINT('',(11.9695,6.45,-3.62));
#1890=CARTESIAN_POINT('',(11.9695,4.35,3.73));
#1891=CARTESIAN_POINT('Origin',(8.8945,4.35,0.329999999999998));
#1892=CARTESIAN_POINT('Origin',(3.5525,6.45,4.83));
#1893=CARTESIAN_POINT('',(3.5525,3.75,4.83));
#1894=CARTESIAN_POINT('',(3.5525,6.45,4.83));
#1895=CARTESIAN_POINT('',(3.5525,3.225,4.83));
#1896=CARTESIAN_POINT('',(13.0695,3.75,4.83));
#1897=CARTESIAN_POINT('',(3.5525,3.75,4.83));
#1898=CARTESIAN_POINT('',(13.0695,6.45,4.83));
#1899=CARTESIAN_POINT('',(13.0695,3.75,4.83));
#1900=CARTESIAN_POINT('',(3.5525,6.45,4.83));
#1901=CARTESIAN_POINT('Origin',(3.5525,6.45,-4.17));
#1902=CARTESIAN_POINT('',(3.5525,6.45,-4.17));
#1903=CARTESIAN_POINT('',(3.5525,6.45,0.662252431623647));
#1904=CARTESIAN_POINT('',(13.0695,6.45,-4.17));
#1905=CARTESIAN_POINT('',(13.0695,6.45,4.83));
#1906=CARTESIAN_POINT('',(3.5525,6.45,-4.17));
#1907=CARTESIAN_POINT('Origin',(3.5525,3.75,-4.17));
#1908=CARTESIAN_POINT('',(3.5525,3.75,-4.17));
#1909=CARTESIAN_POINT('',(3.5525,1.875,-4.17));
#1910=CARTESIAN_POINT('',(13.0695,3.75,-4.17));
#1911=CARTESIAN_POINT('',(13.0695,6.45,-4.17));
#1912=CARTESIAN_POINT('',(3.5525,3.75,-4.17));
#1913=CARTESIAN_POINT('Origin',(3.5525,3.75,4.83));
#1914=CARTESIAN_POINT('',(3.5525,3.75,5.16225243162365));
#1915=CARTESIAN_POINT('',(13.0695,3.75,-4.17));
#1916=CARTESIAN_POINT('Origin',(13.0695,5.1,0.33));
#1917=CARTESIAN_POINT('Origin',(-5.3481126876931,4.35221135513529,2.33957819459301));
#1918=CARTESIAN_POINT('',(-6.34810177700562,3.75221135513529,2.33490687187555));
#1919=CARTESIAN_POINT('',(-4.3481126876931,3.75221135513529,2.33957819459301));
#1920=CARTESIAN_POINT('Origin',(-5.3481126876931,3.75221135513529,2.33957819459301));
#1921=CARTESIAN_POINT('',(-6.34810177700562,4.35221135513529,2.33490687187555));
#1922=CARTESIAN_POINT('',(-6.34810177700562,4.35221135513529,2.33490687187555));
#1923=CARTESIAN_POINT('',(-4.3481126876931,4.35221135513529,2.33957819459301));
#1924=CARTESIAN_POINT('Origin',(-5.3481126876931,4.35221135513529,2.33957819459301));
#1925=CARTESIAN_POINT('',(-4.3481126876931,4.35221135513529,2.33957819459301));
#1926=CARTESIAN_POINT('Origin',(-4.3481126876931,4.35221135513529,0.13957819459301));
#1927=CARTESIAN_POINT('',(-4.3481126876931,3.75221135513529,0.13957819459301));
#1928=CARTESIAN_POINT('',(-4.3481126876931,3.75221135513529,-2.69648649458685));
#1929=CARTESIAN_POINT('',(-4.3481126876931,4.35221135513529,0.13957819459301));
#1930=CARTESIAN_POINT('',(-4.3481126876931,4.35221135513529,0.12101350541315));
#1931=CARTESIAN_POINT('',(-4.3481126876931,4.35221135513529,0.13957819459301));
#1932=CARTESIAN_POINT('Origin',(-5.3481126876931,4.35221135513529,0.139578194593008));
#1933=CARTESIAN_POINT('',(-6.34811268768075,3.75221135513529,0.139583164554889));
#1934=CARTESIAN_POINT('Origin',(-5.3481126876931,3.75221135513529,0.139578194593008));
#1935=CARTESIAN_POINT('',(-6.34811268768075,4.35221135513529,0.139583164554889));
#1936=CARTESIAN_POINT('Origin',(-5.3481126876931,4.35221135513529,0.139578194593008));
#1937=CARTESIAN_POINT('',(-6.34811268768075,4.35221135513529,0.139583164554889));
#1938=CARTESIAN_POINT('Origin',(-6.34810177700562,4.35221135513529,2.33490687187555));
#1939=CARTESIAN_POINT('',(-6.3481213274544,3.75221135513529,-1.59881520883129));
#1940=CARTESIAN_POINT('',(-6.3481073246534,4.35221135513529,1.2186713920819));
#1941=CARTESIAN_POINT('Origin',(-12.7861126876931,4.35221135513529,2.33957819459301));
#1942=CARTESIAN_POINT('',(-13.7861126876931,3.75221135513529,2.33957819459301));
#1943=CARTESIAN_POINT('',(-11.7861126876931,3.75221135513529,2.33957819459301));
#1944=CARTESIAN_POINT('Origin',(-12.7861126876931,3.75221135513529,2.33957819459301));
#1945=CARTESIAN_POINT('',(-13.7861126876931,4.35221135513529,2.33957819459301));
#1946=CARTESIAN_POINT('',(-13.7861126876931,4.35221135513529,2.33957819459301));
#1947=CARTESIAN_POINT('',(-11.7861126876931,4.35221135513529,2.33957819459301));
#1948=CARTESIAN_POINT('Origin',(-12.7861126876931,4.35221135513529,2.33957819459301));
#1949=CARTESIAN_POINT('',(-11.7861126876931,4.35221135513529,2.33957819459301));
#1950=CARTESIAN_POINT('Origin',(-11.7861126876931,4.35221135513529,0.139578194593007));
#1951=CARTESIAN_POINT('',(-11.7861126876931,3.75221135513529,0.139578194593007));
#1952=CARTESIAN_POINT('',(-11.7861126876931,3.75221135513529,-2.69648649458685));
#1953=CARTESIAN_POINT('',(-11.7861126876931,4.35221135513529,0.139578194593007));
#1954=CARTESIAN_POINT('',(-11.7861126876931,4.35221135513529,0.121013505413149));
#1955=CARTESIAN_POINT('',(-11.7861126876931,4.35221135513529,0.139578194593007));
#1956=CARTESIAN_POINT('Origin',(-12.7861126876931,4.35221135513529,0.139578194593011));
#1957=CARTESIAN_POINT('',(-13.7855190391164,3.75221135513529,0.174030258897716));
#1958=CARTESIAN_POINT('Origin',(-12.7861126876931,3.75221135513529,0.139578194593011));
#1959=CARTESIAN_POINT('',(-13.7855190391164,4.35221135513529,0.174030258897716));
#1960=CARTESIAN_POINT('Origin',(-12.7861126876931,4.35221135513529,0.139578194593011));
#1961=CARTESIAN_POINT('',(-13.7855190391164,4.35221135513529,0.174030258897716));
#1962=CARTESIAN_POINT('Origin',(-13.7861126876931,4.35221135513529,2.33957819459301));
#1963=CARTESIAN_POINT('',(-13.7850332972583,3.75221135513529,-1.59788888516655));
#1964=CARTESIAN_POINT('',(-13.7858058700818,4.35221135513529,1.22034996614206));
#1965=CARTESIAN_POINT('Origin',(-14.3365,6.45221135513529,-4.43255118376671));
#1966=CARTESIAN_POINT('',(-14.3365,6.45221135513529,-4.43255118376671));
#1967=CARTESIAN_POINT('',(-3.5525,6.45221135513529,-4.43255118376671));
#1968=CARTESIAN_POINT('',(-8.9445,6.45221135513529,-4.43255118376671));
#1969=CARTESIAN_POINT('',(-14.3365,4.35221135513529,-4.43255118376671));
#1970=CARTESIAN_POINT('',(-14.3365,6.45221135513529,-4.43255118376671));
#1971=CARTESIAN_POINT('',(-3.5525,4.35221135513529,-4.43255118376671));
#1972=CARTESIAN_POINT('',(-14.3365,4.35221135513529,-4.43255118376671));
#1973=CARTESIAN_POINT('',(-3.5525,6.45221135513529,-4.43255118376671));
#1974=CARTESIAN_POINT('Origin',(-14.3365,6.45221135513529,4.63744881623329));
#1975=CARTESIAN_POINT('',(-14.3365,6.45221135513529,4.63744881623329));
#1976=CARTESIAN_POINT('',(-14.3365,6.45221135513529,5.10594881623329));
#1977=CARTESIAN_POINT('',(-14.3365,4.35221135513529,4.63744881623329));
#1978=CARTESIAN_POINT('',(-14.3365,6.45221135513529,4.63744881623329));
#1979=CARTESIAN_POINT('',(-14.3365,4.35221135513529,4.63744881623329));
#1980=CARTESIAN_POINT('Origin',(-3.5525,6.45221135513529,4.63744881623329));
#1981=CARTESIAN_POINT('',(-3.5525,6.45221135513529,4.63744881623329));
#1982=CARTESIAN_POINT('',(-3.5525,6.45221135513529,4.63744881623329));
#1983=CARTESIAN_POINT('',(-3.5525,4.35221135513529,4.63744881623329));
#1984=CARTESIAN_POINT('',(-3.5525,6.45221135513529,4.63744881623329));
#1985=CARTESIAN_POINT('',(-3.5525,4.35221135513529,4.63744881623329));
#1986=CARTESIAN_POINT('Origin',(-8.9445,4.35221135513529,0.102448816233291));
#1987=CARTESIAN_POINT('',(-3.5525,4.35221135513529,-4.43255118376671));
#1988=CARTESIAN_POINT('Origin',(-3.5525,6.45221135513529,5.57444881623329));
#1989=CARTESIAN_POINT('',(-3.5525,6.45221135513529,-5.53255118376671));
#1990=CARTESIAN_POINT('',(-3.5525,6.45221135513529,-2.67024235783008));
#1991=CARTESIAN_POINT('',(-15.4365,6.45221135513529,-5.53255118376671));
#1992=CARTESIAN_POINT('',(-3.5525,6.45221135513529,-5.53255118376671));
#1993=CARTESIAN_POINT('',(-15.4365,6.45221135513529,5.57444881623329));
#1994=CARTESIAN_POINT('',(-15.4365,6.45221135513529,-5.53255118376671));
#1995=CARTESIAN_POINT('',(-3.5525,6.45221135513529,5.57444881623329));
#1996=CARTESIAN_POINT('',(-3.5525,6.45221135513529,5.57444881623329));
#1997=CARTESIAN_POINT('',(-3.5525,6.45221135513529,-2.67024235783008));
#1998=CARTESIAN_POINT('Origin',(-3.5525,3.75221135513529,5.57444881623329));
#1999=CARTESIAN_POINT('',(-3.5525,3.75221135513529,5.57444881623329));
#2000=CARTESIAN_POINT('',(-3.5525,1.87610567756765,5.57444881623329));
#2001=CARTESIAN_POINT('',(-15.4365,3.75221135513529,5.57444881623329));
#2002=CARTESIAN_POINT('',(-15.4365,6.45221135513529,5.57444881623329));
#2003=CARTESIAN_POINT('',(-3.5525,3.75221135513529,5.57444881623329));
#2004=CARTESIAN_POINT('Origin',(-3.5525,3.75221135513529,-5.53255118376671));
#2005=CARTESIAN_POINT('',(-3.5525,3.75221135513529,-5.53255118376671));
#2006=CARTESIAN_POINT('',(-3.5525,3.75221135513529,-8.22374235783007));
#2007=CARTESIAN_POINT('',(-15.4365,3.75221135513529,-5.53255118376671));
#2008=CARTESIAN_POINT('',(-15.4365,3.75221135513529,5.57444881623329));
#2009=CARTESIAN_POINT('',(-3.5525,3.75221135513529,-5.53255118376671));
#2010=CARTESIAN_POINT('Origin',(-3.5525,6.45221135513529,-5.53255118376671));
#2011=CARTESIAN_POINT('',(-3.5525,3.22610567756765,-5.53255118376671));
#2012=CARTESIAN_POINT('',(-15.4365,3.75221135513529,-5.53255118376671));
#2013=CARTESIAN_POINT('Origin',(-15.4365,5.10221135513529,0.0209488162332883));
#2014=CARTESIAN_POINT('Origin',(-4.98260728734362,4.6,7.01568773863205));
#2015=CARTESIAN_POINT('',(5.01736192827099,4.6,6.99087470254032));
#2016=CARTESIAN_POINT('',(-4.98260728734362,4.6,7.01568773863205));
#2017=CARTESIAN_POINT('',(-4.98260728734362,4.6,7.01568773863205));
#2018=CARTESIAN_POINT('',(5.02555023018126,4.6,10.2908645436931));
#2019=CARTESIAN_POINT('',(5.01736192827099,4.6,6.99087470254032));
#2020=CARTESIAN_POINT('',(-4.97441898543335,4.6,10.3156775797849));
#2021=CARTESIAN_POINT('',(5.02555023018126,4.6,10.2908645436931));
#2022=CARTESIAN_POINT('',(-4.96855442435307,4.6,12.6791703038954));
#2023=CARTESIAN_POINT('Origin',(0.0255656223739587,6.15,10.303271061739));
#2024=CARTESIAN_POINT('',(5.02555023018126,7.7,10.2908645436931));
#2025=CARTESIAN_POINT('',(5.02555023018126,3.075,10.2908645436931));
#2026=CARTESIAN_POINT('',(2.1,7.7,10.2981237443851));
#2027=CARTESIAN_POINT('',(5.02555023018126,7.7,10.2908645436931));
#2028=CARTESIAN_POINT('',(-2.08176301919513,7.7,10.3085));
#2029=CARTESIAN_POINT('',(0.0255656223739673,7.7,10.303271061739));
#2030=CARTESIAN_POINT('',(-4.97441898543335,7.7,10.3156775797849));
#2031=CARTESIAN_POINT('',(5.02555023018126,7.7,10.2908645436931));
#2032=CARTESIAN_POINT('',(-4.97441898543335,3.075,10.3156775797849));
#2033=CARTESIAN_POINT('Origin',(1.38777878078145E-16,7.7,0.));
#2034=CARTESIAN_POINT('',(2.1,7.7,10.3085));
#2035=CARTESIAN_POINT('',(2.1,7.7,-18.6355));
#2036=CARTESIAN_POINT('',(1.,7.7,10.3085));
#2037=CARTESIAN_POINT('',(2.1,7.7,10.3085));
#2038=CARTESIAN_POINT('',(1.,7.7,18.6355));
#2039=CARTESIAN_POINT('',(1.,7.7,18.6355));
#2040=CARTESIAN_POINT('',(-1.,7.7,18.6355));
#2041=CARTESIAN_POINT('',(-1.,7.7,18.6355));
#2042=CARTESIAN_POINT('',(-1.,7.7,10.3085));
#2043=CARTESIAN_POINT('',(-1.,7.7,18.6355));
#2044=CARTESIAN_POINT('',(-2.1,7.7,10.3085));
#2045=CARTESIAN_POINT('Origin',(-2.1,7.7,-18.6355));
#2046=CARTESIAN_POINT('',(-2.1,7.7,-18.6355));
#2047=CARTESIAN_POINT('',(-2.1,7.7,10.3085));
#2048=CARTESIAN_POINT('',(-2.1,7.7,-18.6355));
#2049=CARTESIAN_POINT('',(-2.1,8.85,10.3085));
#2050=CARTESIAN_POINT('',(-2.1,7.7,10.3085));
#2051=CARTESIAN_POINT('',(-2.1,8.85,-18.6355));
#2052=CARTESIAN_POINT('',(-2.1,8.85,-18.6355));
#2053=CARTESIAN_POINT('',(-2.1,7.7,-18.6355));
#2054=CARTESIAN_POINT('Origin',(-2.1,7.7,10.3085));
#2055=CARTESIAN_POINT('',(-2.1,7.7,10.3085));
#2056=CARTESIAN_POINT('',(-1.,8.85,10.3085));
#2057=CARTESIAN_POINT('',(-1.,7.7,10.3085));
#2058=CARTESIAN_POINT('',(-2.1,8.85,10.3085));
#2059=CARTESIAN_POINT('Origin',(-1.55,8.85,-4.16349999999999));
#2060=CARTESIAN_POINT('',(-1.,8.85,-18.6355));
#2061=CARTESIAN_POINT('',(-1.,8.85,-11.3995));
#2062=CARTESIAN_POINT('',(-1.,8.85,-18.6355));
#2063=CARTESIAN_POINT('Origin',(-1.,7.7,-18.6355));
#2064=CARTESIAN_POINT('',(-1.,20.2,18.6355));
#2065=CARTESIAN_POINT('',(-1.,7.7,18.6355));
#2066=CARTESIAN_POINT('',(-1.,20.2,-18.6355));
#2067=CARTESIAN_POINT('',(-1.,20.2,18.6355));
#2068=CARTESIAN_POINT('',(-1.,7.7,-18.6355));
#2069=CARTESIAN_POINT('Origin',(0.0180173078731727,7.7,-0.328673565420643));
#2070=CARTESIAN_POINT('',(2.1,7.7,-18.6355));
#2071=CARTESIAN_POINT('',(-0.490991346063414,7.7,-18.6355));
#2072=CARTESIAN_POINT('',(2.1,7.7,-18.6355));
#2073=CARTESIAN_POINT('',(5.04546765425209,7.7,18.317839833067));
#2074=CARTESIAN_POINT('',(5.01736192827099,7.7,6.99087470254032));
#2075=CARTESIAN_POINT('',(18.1991337022667,7.7,5.45816200630038));
#2076=CARTESIAN_POINT('Origin',(0.,7.7,0.));
#2077=CARTESIAN_POINT('',(3.5525,7.7,5.4945048632473));
#2078=CARTESIAN_POINT('',(3.5525,7.7,5.4945048632473));
#2079=CARTESIAN_POINT('',(3.5525,7.7,-10.9149335318934));
#2080=CARTESIAN_POINT('',(3.5525,7.7,5.4945048632473));
#2081=CARTESIAN_POINT('',(15.5519846320123,7.7,-10.9149335318934));
#2082=CARTESIAN_POINT('',(3.5525,7.7,-10.9149335318934));
#2083=CARTESIAN_POINT('',(-15.5519846320123,7.7,-10.9149335318934));
#2084=CARTESIAN_POINT('Origin',(0.,7.7,0.));
#2085=CARTESIAN_POINT('',(-3.5525,7.7,-10.9149335318934));
#2086=CARTESIAN_POINT('',(-3.5525,7.7,-10.9149335318934));
#2087=CARTESIAN_POINT('',(-3.5525,7.7,5.57690161050416));
#2088=CARTESIAN_POINT('',(-3.5525,7.7,5.57690161050416));
#2089=CARTESIAN_POINT('',(-18.1630990865203,7.7,5.57690161050416));
#2090=CARTESIAN_POINT('',(-3.5525,7.7,5.57690161050416));
#2091=CARTESIAN_POINT('',(-4.95450156136252,7.7,18.3426528691587));
#2092=CARTESIAN_POINT('Origin',(0.,7.7,0.));
#2093=CARTESIAN_POINT('',(-4.98260728734362,7.7,7.01568773863205));
#2094=CARTESIAN_POINT('Origin',(2.1,7.7,10.3085));
#2095=CARTESIAN_POINT('',(2.1,8.85,-18.6355));
#2096=CARTESIAN_POINT('',(2.1,7.7,-18.6355));
#2097=CARTESIAN_POINT('',(2.1,8.85,10.3085));
#2098=CARTESIAN_POINT('',(2.1,8.85,-18.6355));
#2099=CARTESIAN_POINT('',(2.1,7.7,10.3085));
#2100=CARTESIAN_POINT('Origin',(1.,7.7,10.3085));
#2101=CARTESIAN_POINT('',(1.,8.85,10.3085));
#2102=CARTESIAN_POINT('',(2.1,8.85,10.3085));
#2103=CARTESIAN_POINT('',(1.,7.7,10.3085));
#2104=CARTESIAN_POINT('Origin',(1.55,8.85,-4.1635));
#2105=CARTESIAN_POINT('',(1.,8.85,-18.6355));
#2106=CARTESIAN_POINT('',(2.1,8.85,-18.6355));
#2107=CARTESIAN_POINT('',(1.,8.85,7.236));
#2108=CARTESIAN_POINT('Origin',(1.,7.7,18.6355));
#2109=CARTESIAN_POINT('',(1.,20.2,-18.6355));
#2110=CARTESIAN_POINT('',(1.,7.7,-18.6355));
#2111=CARTESIAN_POINT('',(1.,20.2,18.6355));
#2112=CARTESIAN_POINT('',(1.,20.2,18.6355));
#2113=CARTESIAN_POINT('',(1.,7.7,18.6355));
#2114=CARTESIAN_POINT('Origin',(1.,7.7,-18.6355));
#2115=CARTESIAN_POINT('',(1.,20.2,-18.6355));
#2116=CARTESIAN_POINT('Origin',(-1.,7.7,18.6355));
#2117=CARTESIAN_POINT('',(-1.,20.2,18.6355));
#2118=CARTESIAN_POINT('Origin',(1.38777878078145E-16,20.2,0.));
#2119=CARTESIAN_POINT('Origin',(-3.5525,0.,5.57690161050416));
#2120=CARTESIAN_POINT('',(-3.5525,0.,5.57690161050416));
#2121=CARTESIAN_POINT('',(-18.1630990865203,0.,5.57690161050416));
#2122=CARTESIAN_POINT('',(-3.5525,0.,5.57690161050416));
#2123=CARTESIAN_POINT('',(-18.1630990865203,0.,5.57690161050416));
#2124=CARTESIAN_POINT('',(-3.5525,0.,5.57690161050416));
#2125=CARTESIAN_POINT('Origin',(-3.5525,0.,-10.9149335318934));
#2126=CARTESIAN_POINT('',(-3.5525,0.,-10.9149335318934));
#2127=CARTESIAN_POINT('',(-3.5525,0.,5.57690161050416));
#2128=CARTESIAN_POINT('',(-3.5525,0.,-10.9149335318934));
#2129=CARTESIAN_POINT('Origin',(-15.5519846320123,0.,-10.9149335318934));
#2130=CARTESIAN_POINT('',(-15.5519846320123,0.,-10.9149335318934));
#2131=CARTESIAN_POINT('',(-3.5525,0.,-10.9149335318934));
#2132=CARTESIAN_POINT('',(-15.5519846320123,0.,-10.9149335318934));
#2133=CARTESIAN_POINT('Origin',(0.,0.,0.));
#2134=CARTESIAN_POINT('',(15.5519846320123,0.,-10.9149335318934));
#2135=CARTESIAN_POINT('Origin',(0.,0.,0.));
#2136=CARTESIAN_POINT('',(15.5519846320123,0.,-10.9149335318934));
#2137=CARTESIAN_POINT('Origin',(3.5525,0.,-10.9149335318934));
#2138=CARTESIAN_POINT('',(3.5525,0.,-10.9149335318934));
#2139=CARTESIAN_POINT('',(3.5525,0.,-10.9149335318934));
#2140=CARTESIAN_POINT('',(3.5525,0.,-10.9149335318934));
#2141=CARTESIAN_POINT('Origin',(3.5525,0.,5.4945048632473));
#2142=CARTESIAN_POINT('',(3.5525,0.,5.4945048632473));
#2143=CARTESIAN_POINT('',(3.5525,0.,5.4945048632473));
#2144=CARTESIAN_POINT('',(3.5525,0.,5.4945048632473));
#2145=CARTESIAN_POINT('Origin',(18.1991337022667,0.,5.45816200630038));
#2146=CARTESIAN_POINT('',(18.1991337022667,0.,5.45816200630038));
#2147=CARTESIAN_POINT('',(3.5525,0.,5.4945048632473));
#2148=CARTESIAN_POINT('',(18.1991337022667,0.,5.45816200630038));
#2149=CARTESIAN_POINT('Origin',(0.,0.,0.));
#2150=CARTESIAN_POINT('',(5.04546765425209,0.,18.317839833067));
#2151=CARTESIAN_POINT('Origin',(0.,0.,0.));
#2152=CARTESIAN_POINT('',(5.04546765425209,0.,18.317839833067));
#2153=CARTESIAN_POINT('Origin',(5.01736192827099,0.,6.99087470254032));
#2154=CARTESIAN_POINT('',(5.01736192827099,0.,6.99087470254032));
#2155=CARTESIAN_POINT('',(5.01736192827099,0.,6.99087470254032));
#2156=CARTESIAN_POINT('',(5.01736192827099,0.,6.99087470254032));
#2157=CARTESIAN_POINT('Origin',(-4.98260728734362,0.,7.01568773863205));
#2158=CARTESIAN_POINT('',(-4.98260728734362,0.,7.01568773863205));
#2159=CARTESIAN_POINT('',(-4.98260728734362,0.,7.01568773863205));
#2160=CARTESIAN_POINT('',(-4.98260728734362,0.,7.01568773863205));
#2161=CARTESIAN_POINT('Origin',(-4.95450156136252,0.,18.3426528691587));
#2162=CARTESIAN_POINT('',(-4.95450156136252,0.,18.3426528691587));
#2163=CARTESIAN_POINT('',(-4.95450156136252,0.,18.3426528691587));
#2164=CARTESIAN_POINT('',(-4.98260728734362,0.,7.01568773863205));
#2165=CARTESIAN_POINT('Origin',(0.,0.,0.));
#2166=CARTESIAN_POINT('Origin',(0.,0.,0.));
#2167=CARTESIAN_POINT('Origin',(0.0180173078731727,0.,-0.328673565420643));
#2168=UNCERTAINTY_MEASURE_WITH_UNIT(LENGTH_MEASURE(0.01),#2172,
'DISTANCE_ACCURACY_VALUE',
'Maximum model space distance between geometric entities at asserted c
onnectivities');
#2169=UNCERTAINTY_MEASURE_WITH_UNIT(LENGTH_MEASURE(0.01),#2172,
'DISTANCE_ACCURACY_VALUE',
'Maximum model space distance between geometric entities at asserted c
onnectivities');
#2170=(
GEOMETRIC_REPRESENTATION_CONTEXT(3)
GLOBAL_UNCERTAINTY_ASSIGNED_CONTEXT((#2168))
GLOBAL_UNIT_ASSIGNED_CONTEXT((#2172,#2174,#2175))
REPRESENTATION_CONTEXT('','3D')
);
#2171=(
GEOMETRIC_REPRESENTATION_CONTEXT(3)
GLOBAL_UNCERTAINTY_ASSIGNED_CONTEXT((#2169))
GLOBAL_UNIT_ASSIGNED_CONTEXT((#2172,#2174,#2175))
REPRESENTATION_CONTEXT('','3D')
);
#2172=(
LENGTH_UNIT()
NAMED_UNIT(*)
SI_UNIT(.MILLI.,.METRE.)
);
#2173=(
LENGTH_UNIT()
NAMED_UNIT(*)
SI_UNIT($,.METRE.)
);
#2174=(
NAMED_UNIT(*)
PLANE_ANGLE_UNIT()
SI_UNIT($,.RADIAN.)
);
#2175=(
NAMED_UNIT(*)
SI_UNIT($,.STERADIAN.)
SOLID_ANGLE_UNIT()
);
#2176=SHAPE_DEFINITION_REPRESENTATION(#2177,#2178);
#2177=PRODUCT_DEFINITION_SHAPE('',$,#2180);
#2178=SHAPE_REPRESENTATION('',(#1346),#2170);
#2179=PRODUCT_DEFINITION_CONTEXT('part definition',#2184,'design');
#2180=PRODUCT_DEFINITION('2026-07-10-10-46-46-883',
'TwoSiPM_Metalens_Holder',#2181,#2179);
#2181=PRODUCT_DEFINITION_FORMATION('',$,#2186);
#2182=PRODUCT_RELATED_PRODUCT_CATEGORY('TwoSiPM_Metalens_Holder',
'TwoSiPM_Metalens_Holder',(#2186));
#2183=APPLICATION_PROTOCOL_DEFINITION('international standard',
'automotive_design',2009,#2184);
#2184=APPLICATION_CONTEXT(
'Core Data for Automotive Mechanical Design Process');
#2185=PRODUCT_CONTEXT('part definition',#2184,'mechanical');
#2186=PRODUCT('2026-07-10-10-46-46-883','TwoSiPM_Metalens_Holder',$,(#2185));
#2187=PRESENTATION_STYLE_ASSIGNMENT((#2188));
#2188=SURFACE_STYLE_USAGE(.BOTH.,#2189);
#2189=SURFACE_SIDE_STYLE('',(#2190));
#2190=SURFACE_STYLE_FILL_AREA(#2191);
#2191=FILL_AREA_STYLE('Steel - Satin',(#2192));
#2192=FILL_AREA_STYLE_COLOUR('Steel - Satin',#2193);
#2193=COLOUR_RGB('Steel - Satin',0.627450980392157,0.627450980392157,0.627450980392157);
ENDSEC;
END-ISO-10303-21;
